<?xml version="1.0" encoding="UTF-8" standalone="no"?>
<!-- Created with Inkscape (http://www.inkscape.org/) -->

<svg
   xmlns:dc="http://purl.org/dc/elements/1.1/"
   xmlns:cc="http://creativecommons.org/ns#"
   xmlns:rdf="http://www.w3.org/1999/02/22-rdf-syntax-ns#"
   xmlns:svg="http://www.w3.org/2000/svg"
   xmlns="http://www.w3.org/2000/svg"
   xmlns:xlink="http://www.w3.org/1999/xlink"
   xmlns:sodipodi="http://sodipodi.sourceforge.net/DTD/sodipodi-0.dtd"
   xmlns:inkscape="http://www.inkscape.org/namespaces/inkscape"
   width="64mm"
   height="64mm"
   viewBox="0 0 64 64"
   id="svg2"
   version="1.1"
   inkscape:version="0.91+devel r"
   sodipodi:docname="eacon.svg"
   inkscape:export-filename="eacon.png"
   inkscape:export-xdpi="9.5249996"
   inkscape:export-ydpi="9.5249996">
  <defs
     id="defs4">
    <linearGradient
       id="linearGradient4786"
       gradientUnits="userSpaceOnUse"
       x1="318.21329"
       y1="475.4267"
       x2="318.21329"
       y2="324.18329">
      <stop
         offset="0"
         style="stop-color:#5E171C"
         id="stop4788" />
      <stop
         offset="1"
         style="stop-color:#FF1726"
         id="stop4790" />
    </linearGradient>
    <linearGradient
       inkscape:collect="always"
       xlink:href="#linearGradient4786"
       id="linearGradient4827"
       x1="21.594101"
       y1="352.26657"
       x2="21.594101"
       y2="312.14203"
       gradientUnits="userSpaceOnUse"
       gradientTransform="matrix(1.3099679,0,0,1.3099679,3.2946705,-403.17698)" />
    <filter
       inkscape:collect="always"
       style="color-interpolation-filters:sRGB"
       id="filter4995"
       x="-0.033406729"
       width="1.0668135"
       y="-0.042489972"
       height="1.0849799">
      <feGaussianBlur
         inkscape:collect="always"
         stdDeviation="0.65252169"
         id="feGaussianBlur4997" />
    </filter>
    <filter
       inkscape:collect="always"
       style="color-interpolation-filters:sRGB"
       id="filter4999"
       x="-0.03902978"
       width="1.0780596"
       y="-0.039029773"
       height="1.0780595">
      <feGaussianBlur
         inkscape:collect="always"
         stdDeviation="0.65252169"
         id="feGaussianBlur5001" />
    </filter>
  </defs>
  <sodipodi:namedview
     id="base"
     pagecolor="#ffffff"
     bordercolor="#666666"
     borderopacity="1.0"
     inkscape:pageopacity="0.0"
     inkscape:pageshadow="2"
     inkscape:zoom="0.98994949"
     inkscape:cx="99.597315"
     inkscape:cy="129.50315"
     inkscape:document-units="mm"
     inkscape:current-layer="layer1"
     showgrid="false"
     inkscape:snap-bbox="true"
     inkscape:bbox-nodes="true"
     inkscape:object-nodes="true"
     inkscape:snap-midpoints="true"
     inkscape:window-width="1753"
     inkscape:window-height="1180"
     inkscape:window-x="50"
     inkscape:window-y="-3"
     inkscape:window-maximized="1" />
  <metadata
     id="metadata7">
    <rdf:RDF>
      <cc:Work
         rdf:about="">
        <dc:format>image/svg+xml</dc:format>
        <dc:type
           rdf:resource="http://purl.org/dc/dcmitype/StillImage" />
        <dc:title></dc:title>
      </cc:Work>
    </rdf:RDF>
  </metadata>
  <g
     inkscape:label="Layer 1"
     inkscape:groupmode="layer"
     id="layer1"
     transform="translate(0,-233.00001)" />
  <g
     inkscape:groupmode="layer"
     id="layer3"
     inkscape:label="shadow"
     style="display:inline;opacity:0.66600001">
    <rect
       ry="5.9071932"
       y="11.937724"
       x="11.618825"
       height="40.12455"
       width="40.124542"
       id="rect4989"
       style="display:inline;opacity:1;fill:#000000;fill-opacity:1;stroke:#000000;stroke-width:1.32291663;stroke-linecap:round;stroke-linejoin:miter;stroke-miterlimit:4;stroke-dasharray:none;stroke-opacity:1;filter:url(#filter4999)"
       transform="matrix(1.3099679,0,0,1.3099679,-9.9189718,-9.9189723)" />
    <path
       id="path4991"
       d="m 51.284074,21.935513 c -3.202517,-3.86027 -8.739981,-9.94383 -8.739981,-9.94383 -1.72085,7.35065 -2.607733,12.70132 -2.607733,12.70132 l -2.016125,-0.78846 c -1.011767,-0.84825 -4.055004,-2.6535 -5.702565,-3.61077 l -1.07315,0 c -1.64756,0.95753 -4.690798,2.76252 -5.702564,3.61077 l -2.016125,0.78846 c 0,0 -0.886619,-5.35067 -2.607734,-12.70132 0,0 -9.681633,9.29481 -11.7308312,13.8729 -1.8875375,4.21666 1.6060212,11.55647 5.6313912,16.89443 0,0 -1.15226,-7.12364 -1.15226,-12.33884 0,-5.2742 4.95644,-8.03989 6.081712,-10.75505 0,0 3.733536,7.89014 1.706299,8.16743 0,0 -10.15074,20.06838 5.895181,21.01611 l 0.163777,-6.02006 c 0,0 -6.147329,-0.47228 -4.274344,-10.76034 0,0 5.01994,5.09429 5.617898,6.50743 0,0 0.434711,7.98989 2.609056,8.91381 l 0.314855,0.0564 0.314854,-0.0564 c 2.174081,-0.92392 2.609056,-8.91381 2.609056,-8.91381 0.597958,-1.41314 5.690658,-6.50743 5.690658,-6.50743 2.397919,10.82966 -4.347104,10.76034 -4.347104,10.76034 l 0.163777,6.02006 c 16.045921,-0.94773 5.895181,-21.01611 5.895181,-21.01611 -2.027237,-0.27702 1.706298,-8.16743 1.706298,-8.16743 1.125273,2.71516 5.905236,5.55467 6.784446,10.75505 0.890588,5.2668 -1.073944,12.60078 -1.073944,12.60078 7.621323,-10.10629 7.727156,-14.01312 1.860021,-21.08544 z"
       inkscape:connector-curvature="0"
       style="display:inline;opacity:1;fill:#000000;filter:url(#filter4995)"
       transform="matrix(1.3099679,0,0,1.3099679,-9.9189718,-9.9189723)" />
  </g>
  <g
     inkscape:groupmode="layer"
     id="layer2"
     inkscape:label="icon"
     style="display:inline;opacity:1">
    <rect
       style="opacity:1;fill:url(#linearGradient4827);fill-opacity:1;stroke:#ffffff;stroke-width:1.73297822;stroke-linecap:round;stroke-linejoin:miter;stroke-miterlimit:4;stroke-dasharray:none;stroke-opacity:1"
       id="rect4817"
       width="52.561863"
       height="52.561871"
       x="5.3013158"
       y="5.7190628"
       ry="7.7382331" />
    <path
       style="fill:#ffffff"
       inkscape:connector-curvature="0"
       d="M 57.261518,18.815845 C 53.066323,13.759015 45.812423,5.7897472 45.812423,5.7897472 43.558165,15.418863 42.396377,22.428068 42.396377,22.428068 l -2.641059,-1.032857 c -1.325382,-1.11118 -5.311925,-3.476 -7.470177,-4.729993 l -1.405792,0 c -2.158251,1.254334 -6.144795,3.618813 -7.470176,4.729993 l -2.641059,1.032857 c 0,0 -1.161442,-7.009205 -3.416048,-16.6383208 0,0 -12.6826277,12.1759028 -15.3670115,18.1730538 -2.47261351,5.523689 2.1038362,15.138604 7.3769415,22.13116 0,0 -1.5094235,-9.331739 -1.5094235,-16.163484 0,-6.909032 6.4927775,-10.531998 7.9668475,-14.08877 0,0 4.890812,10.33583 2.235197,10.699071 0,0 -13.2971436,26.288933 7.722497,27.530429 l 0.214543,-7.886085 c 0,0 -8.052803,-0.618672 -5.599253,-14.0957 0,0 6.57596,6.673356 7.359266,8.524524 0,0 0.569457,10.4665 3.417779,11.676805 l 0.41245,0.07388 0.412449,-0.07388 c 2.847976,-1.210305 3.417779,-11.676805 3.417779,-11.676805 0.783306,-1.851168 7.454579,-8.524524 7.454579,-8.524524 3.141197,14.186507 -5.694566,14.0957 -5.694566,14.0957 l 0.214542,7.886085 c 21.019641,-1.241496 7.722498,-27.530429 7.722498,-27.530429 -2.655615,-0.362887 2.235196,-10.699071 2.235196,-10.699071 1.474071,3.556772 7.735669,7.276439 8.887406,14.08877 1.166642,6.899339 -1.406832,16.506617 -1.406832,16.506617 9.983688,-13.238915 10.122326,-18.356737 2.436568,-27.621249 z"
       id="path4794" />
  </g>
</svg>
