<?xml version="1.0" encoding="UTF-8" standalone="no"?>
<!-- Generator: Adobe Illustrator 17.0.0, SVG Export Plug-In . SVG Version: 6.00 Build 0)  -->

<svg
   xmlns:dc="http://purl.org/dc/elements/1.1/"
   xmlns:cc="http://creativecommons.org/ns#"
   xmlns:rdf="http://www.w3.org/1999/02/22-rdf-syntax-ns#"
   xmlns:svg="http://www.w3.org/2000/svg"
   xmlns="http://www.w3.org/2000/svg"
   xmlns:xlink="http://www.w3.org/1999/xlink"
   xmlns:sodipodi="http://sodipodi.sourceforge.net/DTD/sodipodi-0.dtd"
   xmlns:inkscape="http://www.inkscape.org/namespaces/inkscape"
   version="1.1"
   id="Layer_1"
   x="0px"
   y="0px"
   width="384"
   height="256"
   viewBox="0 0 383.99998 256"
   enable-background="new 0 0 595.28 841.89"
   xml:space="preserve"
   inkscape:version="0.91+devel r"
   sodipodi:docname="eac_logo_screenshot.svg"
   inkscape:export-filename="eac_logo_noscreenshot.png"
   inkscape:export-xdpi="96.000008"
   inkscape:export-ydpi="96.000008"><metadata
     id="metadata4182"><rdf:RDF><cc:Work
         rdf:about=""><dc:format>image/svg+xml</dc:format><dc:type
           rdf:resource="http://purl.org/dc/dcmitype/StillImage" /><dc:title></dc:title></cc:Work></rdf:RDF></metadata><defs
     id="defs4180"><linearGradient
       y2="324.18329"
       x2="318.21329"
       y1="475.4267"
       x1="318.21329"
       gradientUnits="userSpaceOnUse"
       id="SVGID_1_"
       gradientTransform="translate(-49.937316,-226.86058)"><stop
         id="stop4170"
         style="stop-color:#5E171C"
         offset="0" /><stop
         id="stop4172"
         style="stop-color:#FF1726"
         offset="1" /></linearGradient><linearGradient
       inkscape:collect="always"
       xlink:href="#SVGID_1_"
       id="linearGradient6691"
       x1="192"
       y1="256"
       x2="192"
       y2="0"
       gradientUnits="userSpaceOnUse"
       gradientTransform="matrix(0.98718772,0,0,0.98078162,2.4599484,2.4599474)" /><filter
       inkscape:collect="always"
       style="color-interpolation-filters:sRGB"
       id="filter6713"
       x="-0.064689782"
       width="1.1293796"
       y="-0.081172877"
       height="1.1623458"><feGaussianBlur
         inkscape:collect="always"
         stdDeviation="5.0355638"
         id="feGaussianBlur6715" /></filter><filter
       inkscape:collect="always"
       style="color-interpolation-filters:sRGB"
       id="filter6762"
       x="-0.020798478"
       width="1.041597"
       y="-0.13377723"
       height="1.2675545"><feGaussianBlur
         inkscape:collect="always"
         stdDeviation="2.472832"
         id="feGaussianBlur6764" /></filter></defs><sodipodi:namedview
     pagecolor="#ffffff"
     bordercolor="#666666"
     borderopacity="1"
     objecttolerance="10"
     gridtolerance="10"
     guidetolerance="10"
     inkscape:pageopacity="0"
     inkscape:pageshadow="2"
     inkscape:window-width="1753"
     inkscape:window-height="1180"
     id="namedview4178"
     showgrid="false"
     inkscape:snap-smooth-nodes="true"
     inkscape:snap-page="false"
     inkscape:snap-midpoints="true"
     inkscape:zoom="1.1414793"
     inkscape:cx="248.13823"
     inkscape:cy="70.527624"
     inkscape:window-x="50"
     inkscape:window-y="-3"
     inkscape:window-maximized="1"
     inkscape:current-layer="layer2" /><g
     inkscape:groupmode="layer"
     id="layer2"
     inkscape:label="border"
     style="display:inline"><rect
       style="opacity:1;fill:url(#linearGradient6691);fill-opacity:1;stroke:#ffffff;stroke-width:4.91989756;stroke-linecap:round;stroke-linejoin:miter;stroke-miterlimit:4;stroke-dasharray:none;stroke-opacity:1"
       id="rect6683"
       width="379.08011"
       height="251.08011"
       x="2.4599335"
       y="2.4599473"
       ry="21.22814" /></g><g
     inkscape:groupmode="layer"
     id="layer1"
     inkscape:label="head"
     style="display:inline"><path
       sodipodi:type="inkscape:offset"
       inkscape:radius="4.7916446"
       inkscape:original="M 149.61914 50.085938 C 149.61914 50.085938 113.0282 85.214578 105.2832 102.51758 C 98.149203 118.45458 111.35241 146.19609 126.56641 166.37109 C 126.56641 166.37109 122.21094 139.44733 122.21094 119.73633 C 122.21094 99.802328 140.94427 89.349891 145.19727 79.087891 C 145.19727 79.087891 159.30848 108.90903 151.64648 109.95703 C 151.64648 109.95703 113.28173 185.80472 173.92773 189.38672 L 174.54688 166.63477 C 174.54688 166.63477 151.31358 164.84884 158.39258 125.96484 C 158.39258 125.96484 177.365 145.21955 179.625 150.56055 C 179.625 150.56055 181.26833 180.758 189.48633 184.25 L 190.67578 184.46289 L 191.86523 184.25 C 200.08223 180.758 201.72656 150.56055 201.72656 150.56055 C 203.98656 145.21955 223.23438 125.96484 223.23438 125.96484 C 232.29737 166.89584 206.80469 166.63477 206.80469 166.63477 L 207.42383 189.38672 C 268.06983 185.80472 229.70508 109.95703 229.70508 109.95703 C 222.04308 108.91003 236.1543 79.087891 236.1543 79.087891 C 240.4073 89.349891 258.47192 100.08133 261.79492 119.73633 C 265.16092 139.64233 257.73633 167.36133 257.73633 167.36133 C 286.54133 129.16433 286.94258 114.39797 264.76758 87.667969 C 252.66358 73.077969 231.73438 50.085938 231.73438 50.085938 C 225.23038 77.867937 221.87695 98.089844 221.87695 98.089844 L 214.25781 95.111328 C 210.43381 91.905328 198.93208 85.080891 192.70508 81.462891 L 188.64844 81.462891 C 182.42144 85.081891 170.9197 91.905328 167.0957 95.111328 L 159.47656 98.089844 C 159.47656 98.089844 156.12414 77.867937 149.61914 50.085938 z "
       style="opacity:0.6;fill:#000000;fill-opacity:1;filter:url(#filter6713)"
       id="path6695"
       d="m 231.88867,45.296875 a 4.7921237,4.7921237 0 0 0 -4.82031,3.697266 c -5.15382,22.014672 -7.73479,36.166784 -8.85547,42.517578 l -1.80078,-0.703125 C 211.24568,86.711323 201.11163,80.806595 195.11133,77.320312 a 4.7921237,4.7921237 0 0 0 -2.40625,-0.648437 l -4.05664,0 a 4.7921237,4.7921237 0 0 0 -2.40821,0.648437 c -5.99938,3.486715 -16.13206,9.390817 -21.29882,13.488282 l -1.79883,0.703125 c -1.12043,-6.350711 -3.70273,-20.502559 -8.85742,-42.517578 a 4.7921237,4.7921237 0 0 0 -7.98438,-2.365235 c 0,0 -9.23885,8.867441 -19.46484,19.931641 -10.226,11.0642 -21.39769,23.883837 -25.92578,34.000003 -4.440994,9.92095 -2.383774,21.93981 2.15039,33.98242 4.53416,12.04261 11.8382,24.31444 19.67968,34.71289 a 4.7921237,4.7921237 0 0 0 8.55665,-3.65039 c 0,0 -4.29493,-26.864 -4.29493,-45.86914 0,-8.46599 3.89162,-14.88533 8.81836,-20.919924 2.73483,-3.349795 5.75934,-6.392761 8.43946,-9.595703 0.84895,2.101926 1.70692,4.110069 2.49804,6.445313 1.2243,3.613883 2.15752,7.261114 2.33789,9.423824 0.0479,0.57426 0.0207,0.54583 -0.004,0.81836 a 4.7921237,4.7921237 0 0 0 -1.72071,1.88672 c 0,0 -9.9534,19.39406 -12.09179,40.03906 -1.0692,10.32251 -0.24962,21.26547 5.56054,30.23633 5.81017,8.97087 16.61992,15.14367 32.80469,16.09961 a 4.7921237,4.7921237 0 0 0 5.07227,-4.65234 l 0.35937,-13.22461 c 0.31441,0.99517 0.57368,2.03393 0.94531,2.97656 1.50549,3.81864 3.30246,7.568 7.5918,9.39063 a 4.7921237,4.7921237 0 0 0 1.0293,0.30664 l 1.18945,0.21289 a 4.7921237,4.7921237 0 0 0 1.6875,0 l 1.18945,-0.21289 a 4.7921237,4.7921237 0 0 0 1.03125,-0.30664 c 4.2892,-1.82279 6.08444,-5.57205 7.58985,-9.39063 0.37161,-0.94262 0.63091,-1.9814 0.94531,-2.97656 l 0.35938,13.22461 a 4.7921237,4.7921237 0 0 0 5.07226,4.65234 c 16.18477,-0.95594 26.99452,-7.12874 32.80469,-16.09961 5.81017,-8.97086 6.62974,-19.91382 5.56055,-30.23633 -2.1384,-20.645 -12.0918,-40.03906 -12.0918,-40.03906 a 4.7921237,4.7921237 0 0 0 -1.7207,-1.88476 c -0.0247,-0.27225 -0.0519,-0.2447 -0.004,-0.82032 0.18037,-2.16266 1.11554,-5.807915 2.33984,-9.421871 0.78545,-2.318514 1.63501,-4.310081 2.47852,-6.400391 2.65952,3.218889 5.69896,6.316557 8.59961,9.726563 5.25468,6.177399 9.949,12.979399 11.39648,21.541019 3.05095,18.04284 -3.96289,45.58593 -3.96289,45.58593 a 4.7921237,4.7921237 0 0 0 8.45508,4.125 c 14.57478,-19.32695 22.5229,-33.17086 23.58398,-46.65625 1.06109,-13.48538 -5.318,-25.270833 -16.6914,-38.980465 C 256.19749,69.834244 235.27734,46.861328 235.27734,46.861328 a 4.7921237,4.7921237 0 0 0 -3.38867,-1.564453 z m -11.8457,90.894535 c 1.36947,12.91456 -1.79707,18.96946 -4.94922,22.00781 -3.82782,3.68962 -8.24023,3.64453 -8.24023,3.64453 a 4.7921237,4.7921237 0 0 0 -1.60157,0.26563 c 0.7015,-5.11702 1.08492,-8.85004 1.16016,-10.05665 0.22529,-0.35964 1.44326,-2.27357 3.31445,-4.52734 2.02597,-2.44019 4.60008,-5.30196 7.11133,-8.00391 1.64483,-1.76973 1.7741,-1.84223 3.20508,-3.33007 z m -58.08789,0.49023 c 1.23837,1.31128 1.30128,1.3194 2.67383,2.81641 2.47753,2.70219 5.01724,5.56253 7.01953,8.0039 1.84841,2.25375 3.05596,4.16171 3.29101,4.54688 0.075,1.2036 0.45854,4.9394 1.16016,10.05859 a 4.7921237,4.7921237 0 0 0 -1.18555,-0.25 c 0,0 -3.84929,-0.20664 -7.58594,-4.23437 -2.9866,-3.21926 -5.98536,-9.2389 -5.37304,-20.94141 z"
       transform="translate(0,-23.539681)" /><path
       style="fill:#ffffff"
       inkscape:connector-curvature="0"
       id="path4176"
       d="m 264.76678,64.128819 c -12.104,-14.59 -33.033,-37.583 -33.033,-37.583 -6.504,27.782 -9.856,48.005 -9.856,48.005 l -7.62,-2.98 c -3.824,-3.206 -15.326,-10.029 -21.553,-13.647 l -4.056,0 c -6.227,3.619 -17.729,10.441 -21.553,13.647 l -7.62,2.98 c 0,0 -3.351,-20.223 -9.856,-48.005 0,0 -36.592,35.13 -44.337,52.433 -7.134,15.937 6.07,43.678001 21.284,63.853001 0,0 -4.355,-26.924 -4.355,-46.635001 0,-19.934 18.733,-30.387 22.986,-40.649 0,0 14.111,29.821 6.449,30.869 0,0 -38.365,75.849001 22.281,79.431001 l 0.619,-22.753 c 0,0 -23.234,-1.785 -16.155,-40.669 0,0 18.973,19.254 21.233,24.595 0,0 1.643,30.198 9.861,33.69 l 1.19,0.213 1.19,-0.213 c 8.217,-3.492 9.861,-33.69 9.861,-33.69 2.26,-5.341 21.508,-24.595 21.508,-24.595 9.063,40.931 -16.43,40.669 -16.43,40.669 l 0.619,22.753 c 60.646,-3.582 22.281,-79.431001 22.281,-79.431001 -7.662,-1.047 6.449,-30.869 6.449,-30.869 4.253,10.262 22.319,20.994 25.642,40.649 3.366,19.906001 -4.059,47.625001 -4.059,47.625001 28.805,-38.197 29.205,-52.963001 7.03,-79.693001 z" /></g><g
     inkscape:groupmode="layer"
     id="layer3"
     inkscape:label="text"><path
       sodipodi:type="inkscape:offset"
       inkscape:radius="1.3566375"
       inkscape:original="M 184.87109 189.77344 C 180.44443 189.77344 177.0576 190.58622 174.71094 192.21289 C 172.39094 193.81289 171.23047 195.58654 171.23047 197.5332 C 171.23047 198.83987 171.64404 199.97359 172.4707 200.93359 C 173.29737 201.89359 174.29737 202.65289 175.4707 203.21289 C 176.64404 203.74622 177.8169 204.26677 178.99023 204.77344 C 180.19023 205.25344 181.20458 205.82747 182.03125 206.49414 C 182.85792 207.16081 183.27148 207.93445 183.27148 208.81445 C 183.27148 210.12112 182.63156 211.25289 181.35156 212.21289 C 180.09823 213.17289 178.61682 213.6543 176.91016 213.6543 C 176.16349 213.6543 175.65729 213.52057 175.39062 213.25391 C 174.72396 212.58724 174.39062 210.67987 174.39062 207.5332 C 173.59062 207.5332 172.76349 207.70607 171.91016 208.05273 C 171.05682 208.3994 170.58977 208.69359 170.50977 208.93359 C 170.4031 209.46693 170.35156 211.05336 170.35156 213.69336 C 170.35156 216.30669 170.47094 217.73461 170.71094 217.97461 C 171.67094 218.18794 173.13799 218.29297 175.11133 218.29297 C 179.03133 218.29297 182.27008 217.36081 184.83008 215.49414 C 187.41674 213.60081 188.71094 211.30661 188.71094 208.61328 C 188.71094 207.09328 188.29737 205.80104 187.4707 204.73438 C 186.6707 203.64104 185.6831 202.81391 184.50977 202.25391 C 183.3631 201.69391 182.21698 201.2001 181.07031 200.77344 C 179.92365 200.3201 178.93799 199.84065 178.11133 199.33398 C 177.31133 198.80065 176.91016 198.19987 176.91016 197.5332 C 176.91016 196.83987 177.1776 196.25344 177.71094 195.77344 C 178.24427 195.29344 178.92333 194.94771 179.75 194.73438 C 180.60333 194.49438 181.41807 194.31956 182.19141 194.21289 C 182.99141 194.10622 183.65807 194.05273 184.19141 194.05273 C 184.75141 194.05273 185.24326 194.07948 185.66992 194.13281 C 185.96326 193.81281 186.20396 193.21398 186.39062 192.33398 C 186.57729 191.45398 186.66992 190.86755 186.66992 190.57422 C 186.66992 190.25422 186.65753 190.05461 186.63086 189.97461 C 186.49753 189.84128 185.91109 189.77344 184.87109 189.77344 z M 290.41602 189.89453 C 289.74935 189.89453 289.05594 190.04065 288.33594 190.33398 C 287.61594 190.62732 287.09539 190.93391 286.77539 191.25391 C 286.64206 191.38724 286.57617 192.74732 286.57617 195.33398 L 286.69531 209.21289 C 286.69531 213.82622 286.58833 216.7212 286.375 217.89453 C 286.375 217.97453 286.48198 218.01367 286.69531 218.01367 C 288.82865 218.01367 290.2957 217.65359 291.0957 216.93359 C 291.22904 216.82693 291.29492 215.71995 291.29492 213.61328 C 291.29492 211.50661 291.26818 209.53336 291.21484 207.69336 L 291.57617 206.93359 C 291.78951 206.42693 292.17633 205.92073 292.73633 205.41406 C 293.29633 204.9074 293.89516 204.6543 294.53516 204.6543 C 295.52182 204.6543 296.17609 205.22638 296.49609 206.37305 C 296.81609 207.51971 296.97656 209.20073 296.97656 211.41406 C 296.97656 213.6274 296.84284 215.93398 296.57617 218.33398 L 297.89648 218.5332 C 298.42982 218.5332 299.10888 218.45297 299.93555 218.29297 C 300.76221 218.13297 301.21492 217.94771 301.29492 217.73438 L 301.45508 212.41406 C 301.45508 210.25406 301.41594 208.46607 301.33594 207.05273 C 301.25594 206.01273 301.14896 205.19995 301.01562 204.61328 C 300.90896 203.99995 300.73609 203.34763 300.49609 202.6543 C 300.25609 201.9343 299.9619 201.38701 299.61523 201.01367 C 299.26857 200.64034 298.82826 200.3194 298.29492 200.05273 C 297.78826 199.78607 297.13594 199.6543 296.33594 199.6543 C 295.5626 199.6543 294.72307 199.89305 293.81641 200.37305 C 292.93641 200.82638 292.34802 201.18646 292.05469 201.45312 L 291.25586 202.25391 C 291.17586 202.25391 291.13477 202.18607 291.13477 202.05273 L 291.13477 201.69336 C 291.13477 200.68003 291.17586 198.5463 291.25586 195.29297 C 291.33586 192.03964 291.38935 190.29273 291.41602 190.05273 C 291.41602 189.94607 291.08268 189.89453 290.41602 189.89453 z M 74.328125 190.37305 C 71.981458 190.37305 70.687266 190.49438 70.447266 190.73438 C 69.993932 191.18771 69.088516 193.13422 67.728516 196.57422 C 66.368516 199.98755 65.59487 201.98755 65.408203 202.57422 C 65.221536 203.13422 65.087812 203.41406 65.007812 203.41406 C 64.927813 203.41406 64.861927 203.34622 64.808594 203.21289 C 64.248594 201.45289 63.394714 198.97344 62.248047 195.77344 C 61.10138 192.54677 60.461458 190.86771 60.328125 190.73438 C 60.194792 190.60104 59.367656 190.5332 57.847656 190.5332 C 56.354323 190.5332 54.981849 190.5743 53.728516 190.6543 C 52.475182 190.7343 51.808516 190.82693 51.728516 190.93359 L 51.6875 191.05273 C 51.6875 191.42607 51.847969 192.08034 52.167969 193.01367 C 52.514635 193.94701 52.874714 194.64042 53.248047 195.09375 L 52.888672 199.21289 C 52.115339 207.50622 51.728516 213.89305 51.728516 218.37305 C 52.101849 218.53305 52.581302 218.61328 53.167969 218.61328 C 55.194635 218.61328 56.542318 218.2943 57.208984 217.6543 C 57.075651 216.90763 57.007812 214.18747 57.007812 209.49414 C 57.007813 204.77414 57.248516 201.2001 57.728516 198.77344 C 57.755182 198.58677 57.794323 198.49414 57.847656 198.49414 C 57.90099 198.49414 57.968828 198.57437 58.048828 198.73438 C 58.288828 199.02771 59.194245 201.37344 60.767578 205.77344 C 62.340911 210.14677 63.168047 212.4801 63.248047 212.77344 C 63.274714 212.85344 63.488672 212.93367 63.888672 213.01367 C 64.315339 213.09367 64.848281 213.13281 65.488281 213.13281 C 66.154948 213.13281 66.554167 212.98669 66.6875 212.69336 L 67.527344 209.93359 C 68.087344 208.06693 68.780755 205.95995 69.607422 203.61328 C 70.460755 201.26661 71.154167 199.59995 71.6875 198.61328 L 71.927734 198.37305 C 72.114401 198.37305 72.27487 200.46763 72.408203 204.6543 C 72.541536 208.0143 72.607422 210.91971 72.607422 213.37305 C 72.607422 215.79971 72.568281 217.56096 72.488281 218.6543 C 72.488281 218.76096 72.83401 218.81445 73.527344 218.81445 C 74.220677 218.81445 75.101302 218.69313 76.167969 218.45312 C 77.261302 218.23979 77.808594 218.00104 77.808594 217.73438 C 77.808594 211.22771 77.341536 203.7463 76.408203 195.29297 C 76.648203 194.83964 76.942396 194.05359 77.289062 192.93359 C 77.662396 191.81359 77.847656 191.02755 77.847656 190.57422 C 77.847656 190.44089 76.674792 190.37305 74.328125 190.37305 z M 328.47266 190.61328 C 327.77932 190.61328 326.96458 190.78615 326.03125 191.13281 C 325.12458 191.47948 324.67188 191.78607 324.67188 192.05273 C 324.67188 192.13273 324.71102 192.40018 324.79102 192.85352 C 324.87102 193.30685 324.91211 194.30685 324.91211 195.85352 C 324.08544 195.88018 323.37768 195.90693 322.79102 195.93359 C 322.55102 196.14693 322.43164 196.77445 322.43164 197.81445 C 322.43164 198.82779 322.49948 199.39987 322.63281 199.5332 L 324.87109 199.49414 C 324.79109 202.69414 324.75195 206.09336 324.75195 209.69336 C 324.75195 213.29336 324.7787 215.38794 324.83203 215.97461 C 324.91203 216.56128 325.0725 217.1601 325.3125 217.77344 C 325.57917 218.38677 325.81792 218.82708 326.03125 219.09375 C 326.27125 219.36042 326.43172 219.49414 326.51172 219.49414 C 327.41839 219.49414 328.37924 219.2143 329.39258 218.6543 C 330.43258 218.0943 330.95117 217.66638 330.95117 217.37305 C 330.01784 216.49305 329.4725 215.36128 329.3125 213.97461 C 329.2325 213.14794 329.19141 211.50607 329.19141 209.05273 C 329.19141 206.57273 329.21815 203.36073 329.27148 199.41406 L 331.15234 199.41406 C 331.39234 199.41406 331.64544 199.06638 331.91211 198.37305 C 332.17878 197.65305 332.3125 196.84026 332.3125 195.93359 C 332.3125 195.85359 331.3125 195.81445 329.3125 195.81445 C 329.3925 193.06779 329.45839 191.38677 329.51172 190.77344 C 329.51172 190.66677 329.16599 190.61328 328.47266 190.61328 z M 84.068359 193.09375 C 83.348359 193.09375 82.696042 193.37359 82.109375 193.93359 C 81.522708 194.49359 81.228516 195.16026 81.228516 195.93359 C 81.228516 196.70693 81.442474 197.33445 81.869141 197.81445 C 82.322474 198.26779 82.908906 198.49414 83.628906 198.49414 C 84.375573 198.49414 85.04224 198.22669 85.628906 197.69336 C 86.24224 197.13336 86.548828 196.46669 86.548828 195.69336 C 86.548828 194.92003 86.322474 194.29445 85.869141 193.81445 C 85.415807 193.33445 84.815026 193.09375 84.068359 193.09375 z M 120.24023 193.09375 C 119.52023 193.09375 118.86792 193.37359 118.28125 193.93359 C 117.69458 194.49359 117.40039 195.16026 117.40039 195.93359 C 117.40039 196.70693 117.61435 197.33445 118.04102 197.81445 C 118.49435 198.26779 119.08078 198.49414 119.80078 198.49414 C 120.54745 198.49414 121.21411 198.22669 121.80078 197.69336 C 122.41411 197.13336 122.7207 196.46669 122.7207 195.69336 C 122.7207 194.92003 122.49435 194.29445 122.04102 193.81445 C 121.58768 193.33445 120.9869 193.09375 120.24023 193.09375 z M 98.777344 198.73438 C 96.48401 198.73438 94.323542 199.41344 92.296875 200.77344 C 90.270208 202.13344 89.257812 203.62724 89.257812 205.25391 C 89.257813 206.02724 89.591146 206.77414 90.257812 207.49414 C 90.924479 208.18747 91.657031 208.74716 92.457031 209.17383 C 93.257031 209.60049 93.989583 210.0943 94.65625 210.6543 C 95.322917 211.2143 95.65625 211.74724 95.65625 212.25391 C 95.65625 213.02724 95.110911 213.77414 94.017578 214.49414 C 92.924245 215.21414 91.337812 215.57422 89.257812 215.57422 L 89.257812 215.85352 C 89.257813 217.02685 89.591146 218.05359 90.257812 218.93359 C 90.497812 219.25359 90.683073 219.41406 90.816406 219.41406 C 91.98974 219.41406 93.349818 219.16096 94.896484 218.6543 C 96.469818 218.1743 97.924479 217.37391 99.257812 216.25391 C 100.61781 215.10724 101.29688 213.81305 101.29688 212.37305 C 101.27021 211.43971 100.92448 210.57344 100.25781 209.77344 C 99.591146 208.97344 98.856641 208.34786 98.056641 207.89453 C 95.976641 206.69453 94.9375 205.74607 94.9375 205.05273 C 94.9375 204.06607 95.99099 203.24089 98.097656 202.57422 C 99.164323 202.25422 99.96276 202.09375 100.49609 202.09375 C 100.46943 201.32042 100.24307 200.57352 99.816406 199.85352 C 99.38974 199.10685 99.04401 198.73438 98.777344 198.73438 z M 111.90234 198.73438 C 109.60901 198.73438 107.44854 199.41344 105.42188 200.77344 C 103.39521 202.13344 102.38281 203.62724 102.38281 205.25391 C 102.38281 206.02724 102.71615 206.77414 103.38281 207.49414 C 104.04948 208.18747 104.78203 208.74716 105.58203 209.17383 C 106.38203 209.60049 107.11458 210.0943 107.78125 210.6543 C 108.44792 211.2143 108.78125 211.74724 108.78125 212.25391 C 108.78125 213.02724 108.23591 213.77414 107.14258 214.49414 C 106.04924 215.21414 104.46281 215.57422 102.38281 215.57422 L 102.38281 215.85352 C 102.38281 217.02685 102.71615 218.05359 103.38281 218.93359 C 103.62281 219.25359 103.80807 219.41406 103.94141 219.41406 C 105.11474 219.41406 106.47482 219.16096 108.02148 218.6543 C 109.59482 218.1743 111.04948 217.37391 112.38281 216.25391 C 113.74281 215.10724 114.42188 213.81305 114.42188 212.37305 C 114.39521 211.43971 114.04948 210.57344 113.38281 209.77344 C 112.71615 208.97344 111.98164 208.34786 111.18164 207.89453 C 109.10164 206.69453 108.0625 205.74607 108.0625 205.05273 C 108.0625 204.06607 109.11599 203.24089 111.22266 202.57422 C 112.28932 202.25422 113.08776 202.09375 113.62109 202.09375 C 113.59443 201.32042 113.36807 200.57352 112.94141 199.85352 C 112.51474 199.10685 112.16901 198.73438 111.90234 198.73438 z M 281.27734 198.73438 C 278.98401 198.73438 276.82354 199.41344 274.79688 200.77344 C 272.77021 202.13344 271.75781 203.62724 271.75781 205.25391 C 271.75781 206.02724 272.09115 206.77414 272.75781 207.49414 C 273.42448 208.18747 274.15703 208.74716 274.95703 209.17383 C 275.75703 209.60049 276.48958 210.0943 277.15625 210.6543 C 277.82292 211.2143 278.15625 211.74724 278.15625 212.25391 C 278.15625 213.02724 277.61091 213.77414 276.51758 214.49414 C 275.42424 215.21414 273.83781 215.57422 271.75781 215.57422 L 271.75781 215.85352 C 271.75781 217.02685 272.09115 218.05359 272.75781 218.93359 C 272.99781 219.25359 273.18307 219.41406 273.31641 219.41406 C 274.48974 219.41406 275.84982 219.16096 277.39648 218.6543 C 278.96982 218.1743 280.42448 217.37391 281.75781 216.25391 C 283.11781 215.10724 283.79688 213.81305 283.79688 212.37305 C 283.77021 211.43971 283.42448 210.57344 282.75781 209.77344 C 282.09115 208.97344 281.35664 208.34786 280.55664 207.89453 C 278.47664 206.69453 277.4375 205.74607 277.4375 205.05273 C 277.4375 204.06607 278.49099 203.24089 280.59766 202.57422 C 281.66432 202.25422 282.46276 202.09375 282.99609 202.09375 C 282.96943 201.32042 282.74307 200.57352 282.31641 199.85352 C 281.88974 199.10685 281.54401 198.73438 281.27734 198.73438 z M 210.68945 198.85352 C 210.07612 198.85352 209.40945 198.97289 208.68945 199.21289 C 207.96945 199.42622 207.46326 199.68128 207.16992 199.97461 C 207.06326 200.08128 207.00977 200.92081 207.00977 202.49414 L 207.08984 211.57422 C 207.08984 214.74755 206.99721 216.85453 206.81055 217.89453 C 206.81055 217.97453 206.91753 218.01367 207.13086 218.01367 C 209.31753 218.01367 210.78263 217.65359 211.5293 216.93359 C 211.6093 216.85359 211.65039 215.21367 211.65039 212.01367 L 211.65039 208.49414 C 211.65039 208.17414 211.8624 207.69273 212.28906 207.05273 C 213.3824 205.4794 214.89055 204.69336 216.81055 204.69336 L 217.33008 204.77344 L 217.49023 204.45312 C 217.86357 203.81313 218.05078 202.73289 218.05078 201.21289 C 218.05078 200.49289 217.9438 199.95995 217.73047 199.61328 C 216.4238 199.61328 215.19745 199.98771 214.05078 200.73438 C 213.59745 201.00104 213.16953 201.32003 212.76953 201.69336 C 212.3962 202.06669 212.1431 202.33414 212.00977 202.49414 C 211.9031 202.62747 211.82286 202.73445 211.76953 202.81445 C 211.7162 202.86779 211.66271 202.89453 211.60938 202.89453 C 211.55604 202.89453 211.5293 202.43987 211.5293 201.5332 C 211.5293 200.59987 211.57039 199.77273 211.65039 199.05273 C 211.65039 198.9194 211.32945 198.85352 210.68945 198.85352 z M 130.10938 199.17383 C 129.49604 199.17383 128.82937 199.2932 128.10938 199.5332 C 127.38938 199.74654 126.88122 199.99964 126.58789 200.29297 C 126.45456 200.4263 126.38867 201.32128 126.38867 202.97461 L 126.50781 211.97461 C 126.50781 214.72128 126.41518 216.69453 126.22852 217.89453 C 126.22852 217.97453 126.49596 218.01367 127.0293 218.01367 C 127.5893 218.01367 128.2951 217.92104 129.14844 217.73438 C 130.00177 217.54771 130.60255 217.28026 130.94922 216.93359 C 131.05589 216.82693 131.10938 215.34747 131.10938 212.49414 L 131.10938 209.45312 L 131.06836 207.97461 L 131.06836 207.41406 L 131.34961 206.73438 C 131.50961 206.25437 131.85534 205.77297 132.38867 205.29297 C 132.94867 204.81297 133.66883 204.57422 134.54883 204.57422 C 135.42883 204.57422 136.01526 205.1463 136.30859 206.29297 C 136.60193 207.41297 136.74805 209.10638 136.74805 211.37305 C 136.74805 213.61305 136.61628 215.93398 136.34961 218.33398 L 137.66797 218.5332 C 138.2013 218.5332 138.90906 218.44057 139.78906 218.25391 C 140.66906 218.09391 141.10938 217.92104 141.10938 217.73438 L 141.22852 213.05273 C 141.22852 210.78607 141.18938 208.91979 141.10938 207.45312 C 141.02937 206.38646 140.9224 205.53453 140.78906 204.89453 C 140.65573 204.25453 140.45612 203.56112 140.18945 202.81445 C 139.94945 202.06779 139.65526 201.49375 139.30859 201.09375 C 138.96193 200.69375 138.50922 200.36042 137.94922 200.09375 C 137.41589 199.80042 136.74922 199.6543 135.94922 199.6543 C 135.17589 199.6543 134.34875 199.89305 133.46875 200.37305 C 132.61542 200.82638 132.05573 201.20081 131.78906 201.49414 C 131.5224 201.76081 131.32279 201.98716 131.18945 202.17383 L 131.06836 202.25391 C 130.98836 202.25391 130.94922 201.93297 130.94922 201.29297 C 130.94922 200.65297 130.98836 200.01305 131.06836 199.37305 C 131.06836 199.23971 130.74938 199.17383 130.10938 199.17383 z M 257.84375 199.17383 C 257.23042 199.17383 256.56375 199.2932 255.84375 199.5332 C 255.12375 199.74654 254.6156 199.99964 254.32227 200.29297 C 254.18893 200.4263 254.12305 201.32128 254.12305 202.97461 L 254.24219 211.97461 C 254.24219 214.72128 254.14956 216.69453 253.96289 217.89453 C 253.96289 217.97453 254.23034 218.01367 254.76367 218.01367 C 255.32367 218.01367 256.02948 217.92104 256.88281 217.73438 C 257.73615 217.54771 258.33693 217.28026 258.68359 216.93359 C 258.79026 216.82693 258.84375 215.34747 258.84375 212.49414 L 258.84375 209.45312 L 258.80273 207.97461 L 258.80273 207.41406 L 259.08398 206.73438 C 259.24398 206.25437 259.58971 205.77297 260.12305 205.29297 C 260.68305 204.81297 261.4032 204.57422 262.2832 204.57422 C 263.1632 204.57422 263.74964 205.1463 264.04297 206.29297 C 264.3363 207.41297 264.48242 209.10638 264.48242 211.37305 C 264.48242 213.61305 264.35065 215.93398 264.08398 218.33398 L 265.40234 218.5332 C 265.93568 218.5332 266.64344 218.44057 267.52344 218.25391 C 268.40344 218.09391 268.84375 217.92104 268.84375 217.73438 L 268.96289 213.05273 C 268.96289 210.78607 268.92375 208.91979 268.84375 207.45312 C 268.76375 206.38646 268.65677 205.53453 268.52344 204.89453 C 268.3901 204.25453 268.19049 203.56112 267.92383 202.81445 C 267.68383 202.06779 267.38964 201.49375 267.04297 201.09375 C 266.6963 200.69375 266.24359 200.36042 265.68359 200.09375 C 265.15026 199.80042 264.48359 199.6543 263.68359 199.6543 C 262.91026 199.6543 262.08312 199.89305 261.20312 200.37305 C 260.34979 200.82638 259.7901 201.20081 259.52344 201.49414 C 259.25677 201.76081 259.05716 201.98716 258.92383 202.17383 L 258.80273 202.25391 C 258.72273 202.25391 258.68359 201.93297 258.68359 201.29297 C 258.68359 200.65297 258.72273 200.01305 258.80273 199.37305 C 258.80273 199.23971 258.48375 199.17383 257.84375 199.17383 z M 202.10156 199.21289 C 198.92823 199.21289 196.23482 200.18615 194.02148 202.13281 C 191.83482 204.07948 190.74219 206.69461 190.74219 209.97461 C 190.74219 212.32128 191.47474 214.26779 192.94141 215.81445 C 194.40807 217.36112 196.66117 218.13281 199.70117 218.13281 C 201.43451 218.13281 202.74109 217.87971 203.62109 217.37305 C 203.91443 217.13305 204.06055 216.40049 204.06055 215.17383 C 204.06055 213.94716 203.95552 213.22701 203.74219 213.01367 C 203.71552 213.01367 203.64768 213.04042 203.54102 213.09375 C 202.58102 213.57375 201.47404 213.81445 200.2207 213.81445 C 198.6207 213.81445 197.46219 213.42763 196.74219 212.6543 C 196.02219 211.8543 195.66211 210.8543 195.66211 209.6543 C 195.66211 208.4543 195.86172 207.42755 196.26172 206.57422 C 196.66172 205.72089 197.12878 205.09336 197.66211 204.69336 C 198.94211 203.73336 200.60878 203.25391 202.66211 203.25391 L 202.94141 203.25391 C 203.26141 203.01391 203.42188 202.32049 203.42188 201.17383 C 203.42187 200.02716 203.34164 199.38724 203.18164 199.25391 C 203.07497 199.22724 202.7149 199.21289 202.10156 199.21289 z M 314.53711 199.29297 C 311.39044 199.29297 308.88424 200.30732 307.01758 202.33398 C 305.17758 204.33398 304.25781 206.64057 304.25781 209.25391 C 304.25781 211.84057 305.00276 213.94755 306.49609 215.57422 C 307.98943 217.20089 310.04292 218.01367 312.65625 218.01367 C 315.29625 218.01367 317.37648 217.09391 318.89648 215.25391 C 320.44315 213.38724 321.2168 211.18763 321.2168 208.6543 C 321.2168 207.58763 321.07068 206.62677 320.77734 205.77344 C 320.48401 204.89344 320.13633 204.21438 319.73633 203.73438 C 319.33633 203.25438 318.81773 202.78732 318.17773 202.33398 C 317.5644 201.85398 317.05625 201.61328 316.65625 201.61328 C 316.73625 201.13328 316.77734 200.69297 316.77734 200.29297 C 316.77734 199.89297 316.72385 199.63987 316.61719 199.5332 C 316.51052 199.42654 315.81711 199.3463 314.53711 199.29297 z M 155.82227 199.45312 C 151.98227 199.45312 149.03576 200.49422 146.98242 202.57422 C 144.92909 204.65422 143.90234 207.29414 143.90234 210.49414 C 143.90234 212.25414 144.43529 213.84057 145.50195 215.25391 C 146.56862 216.66724 147.99654 217.37305 149.7832 217.37305 C 152.15654 217.37305 153.90344 216.50677 155.02344 214.77344 L 155.14258 214.6543 C 155.16924 214.6543 155.18164 214.70779 155.18164 214.81445 C 155.18164 216.62779 154.99638 218.21422 154.62305 219.57422 C 154.24971 220.93422 153.8094 221.96096 153.30273 222.6543 C 152.79607 223.34763 152.18289 223.90732 151.46289 224.33398 C 150.74289 224.76065 150.12971 225.01375 149.62305 225.09375 C 149.14305 225.20042 148.6349 225.25391 148.10156 225.25391 L 147.3418 225.25391 C 147.3418 225.84057 147.44878 226.48049 147.66211 227.17383 C 147.87544 227.86716 148.1018 228.41445 148.3418 228.81445 C 148.5818 229.21445 148.74227 229.41406 148.82227 229.41406 C 150.52893 229.41406 152.22234 228.94701 153.90234 228.01367 C 154.94234 227.45367 155.86211 226.72112 156.66211 225.81445 C 157.46211 224.93445 158.14312 223.6794 158.70312 222.05273 C 159.26312 220.45273 159.54297 218.6132 159.54297 216.5332 L 159.46289 207.05273 L 159.46289 201.97461 C 159.16956 201.81461 158.59552 201.73438 157.74219 201.73438 L 157.30273 201.73438 L 157.3418 201.13281 C 157.3418 200.59948 157.30266 200.10763 157.22266 199.6543 C 157.22266 199.52096 156.7556 199.45312 155.82227 199.45312 z M 228.9375 199.49414 C 225.87083 199.49414 223.48401 200.4674 221.77734 202.41406 C 220.09734 204.33406 219.25781 206.61391 219.25781 209.25391 C 219.25781 211.86724 219.96362 213.95987 221.37695 215.5332 C 222.79029 217.10654 224.81703 217.89453 227.45703 217.89453 C 230.09703 217.89453 231.87068 217.58794 232.77734 216.97461 C 233.44401 216.12128 233.77734 214.91971 233.77734 213.37305 C 233.77734 212.86638 233.7506 212.61328 233.69727 212.61328 C 233.64393 212.61328 233.60284 212.62763 233.57617 212.6543 C 232.40284 213.3743 230.80401 213.73438 228.77734 213.73438 C 228.13734 213.73437 227.48307 213.63979 226.81641 213.45312 C 226.17641 213.23979 225.85742 212.9743 225.85742 212.6543 C 228.36409 211.80096 230.33734 210.56026 231.77734 208.93359 C 233.24401 207.30693 233.97656 205.66701 233.97656 204.01367 C 233.97656 202.33367 233.44362 201.16081 232.37695 200.49414 C 231.33695 199.82747 230.19083 199.49414 228.9375 199.49414 z M 245.89062 199.49414 C 242.82396 199.49414 240.43714 200.4674 238.73047 202.41406 C 237.05047 204.33406 236.21094 206.61391 236.21094 209.25391 C 236.21094 211.86724 236.91674 213.95987 238.33008 215.5332 C 239.74341 217.10654 241.77016 217.89453 244.41016 217.89453 C 247.05016 217.89453 248.8238 217.58794 249.73047 216.97461 C 250.39714 216.12128 250.73047 214.91971 250.73047 213.37305 C 250.73047 212.86638 250.70372 212.61328 250.65039 212.61328 C 250.59706 212.61328 250.55596 212.62763 250.5293 212.6543 C 249.35596 213.3743 247.75714 213.73438 245.73047 213.73438 C 245.09047 213.73437 244.4362 213.63979 243.76953 213.45312 C 243.12953 213.23979 242.81055 212.9743 242.81055 212.6543 C 245.31721 211.80096 247.29047 210.56026 248.73047 208.93359 C 250.19714 207.30693 250.92969 205.66701 250.92969 204.01367 C 250.92969 202.33367 250.39674 201.16081 249.33008 200.49414 C 248.29008 199.82747 247.14396 199.49414 245.89062 199.49414 z M 85.029297 200.77344 C 83.48263 200.77344 82.402396 201.01414 81.789062 201.49414 C 81.602396 201.86747 81.507812 204.12057 81.507812 208.25391 C 81.507812 212.38724 81.534557 214.8132 81.587891 215.5332 C 81.667891 216.2532 81.828359 217.01445 82.068359 217.81445 C 82.308359 218.61445 82.549062 219.01367 82.789062 219.01367 C 83.562396 219.01367 84.494557 218.71948 85.587891 218.13281 C 86.681224 217.54615 87.228516 217.12018 87.228516 216.85352 C 86.668516 216.00018 86.322786 215.09281 86.189453 214.13281 C 86.082786 213.14615 86.029297 211.6132 86.029297 209.5332 L 86.109375 203.05273 L 86.148438 201.01367 C 86.015104 200.85367 85.64263 200.77344 85.029297 200.77344 z M 121.20117 200.77344 C 119.65451 200.77344 118.57427 201.01414 117.96094 201.49414 C 117.77427 201.86747 117.67969 204.12057 117.67969 208.25391 C 117.67969 212.38724 117.70643 214.8132 117.75977 215.5332 C 117.83977 216.2532 118.00023 217.01445 118.24023 217.81445 C 118.48023 218.61445 118.72094 219.01367 118.96094 219.01367 C 119.73427 219.01367 120.66643 218.71948 121.75977 218.13281 C 122.8531 217.54615 123.40039 217.12018 123.40039 216.85352 C 122.84039 216.00018 122.49466 215.09281 122.36133 214.13281 C 122.25466 213.14615 122.20117 211.6132 122.20117 209.5332 L 122.28125 203.05273 L 122.32031 201.01367 C 122.18698 200.85367 121.81451 200.77344 121.20117 200.77344 z M 228.05664 203.09375 C 228.88331 203.09375 229.29688 203.48057 229.29688 204.25391 C 229.29688 205.48057 228.66935 206.64104 227.41602 207.73438 C 226.16268 208.80104 225.05766 209.34638 224.09766 209.37305 C 223.99099 209.37305 223.9375 209.18779 223.9375 208.81445 C 223.9375 207.24112 224.35107 205.89344 225.17773 204.77344 C 226.0044 203.65344 226.96331 203.09375 228.05664 203.09375 z M 245.00977 203.09375 C 245.83643 203.09375 246.25 203.48057 246.25 204.25391 C 246.25 205.48057 245.62247 206.64104 244.36914 207.73438 C 243.11581 208.80104 242.01078 209.34638 241.05078 209.37305 C 240.94411 209.37305 240.89062 209.18779 240.89062 208.81445 C 240.89062 207.24112 241.30419 205.89344 242.13086 204.77344 C 242.95753 203.65344 243.91643 203.09375 245.00977 203.09375 z M 154.26172 203.57422 L 155.10156 203.69336 C 154.9949 204.54669 154.94336 206.4932 154.94336 209.5332 C 154.94336 209.98654 154.62242 210.58732 153.98242 211.33398 C 153.34242 212.08065 152.54203 212.45312 151.58203 212.45312 C 150.6487 212.45313 149.92854 212.14654 149.42188 211.5332 C 148.94188 210.91987 148.70312 210.19971 148.70312 209.37305 C 148.70312 207.71971 149.19497 206.34724 150.18164 205.25391 C 151.19497 204.13391 152.55505 203.57422 154.26172 203.57422 z M 313.29688 203.57422 C 313.21687 203.89422 313.17773 204.22755 313.17773 204.57422 C 313.17773 204.92089 313.20448 205.14724 313.25781 205.25391 L 313.57617 205.25391 C 314.16284 205.25391 314.76362 205.45352 315.37695 205.85352 C 316.20362 206.36018 316.61719 207.42607 316.61719 209.05273 C 316.61719 210.6794 316.21602 211.90771 315.41602 212.73438 C 314.64268 213.56104 313.80315 213.97461 312.89648 213.97461 C 312.01648 213.97461 311.32307 213.81414 310.81641 213.49414 C 309.48307 212.69414 308.81641 211.25383 308.81641 209.17383 C 308.81641 207.41383 309.28346 206.0394 310.2168 205.05273 C 311.1768 204.06607 312.20354 203.57422 313.29688 203.57422 z "
       style="font-style:normal;font-variant:normal;font-weight:normal;font-stretch:normal;font-size:40px;line-height:125%;font-family:'Bubblegum Sans';-inkscape-font-specification:'Bubblegum Sans, Normal';text-align:center;letter-spacing:0px;word-spacing:0px;writing-mode:lr-tb;text-anchor:middle;opacity:0.66600001;fill:#000000;fill-opacity:1;stroke:none;stroke-width:1px;stroke-linecap:butt;stroke-linejoin:miter;stroke-opacity:1;filter:url(#filter6762)"
       id="path6728"
       d="m 184.87109,188.41602 c -4.59272,0 -8.25854,0.82733 -10.93359,2.68164 -2.52944,1.74557 -4.06445,3.95096 -4.06445,6.43554 0,1.59293 0.54502,3.0945 1.57031,4.28516 0.94886,1.1019 2.11024,1.98288 3.44336,2.61914 a 1.3567731,1.3567731 0 0 0 0.0234,0.01 c 1.18064,0.53665 2.36124,1.06196 3.54296,1.57226 a 1.3567731,1.3567731 0 0 0 0.0332,0.0137 c 1.09848,0.43939 1.99259,0.95245 2.69336,1.51758 0.59955,0.48351 0.73437,0.80871 0.73437,1.26367 0,0.86375 -0.33276,1.52936 -1.37695,2.3125 a 1.3567731,1.3567731 0 0 0 -0.01,0.01 c -1.01746,0.77933 -2.16564,1.16016 -3.61718,1.16016 -0.58469,0 -0.74051,-0.18191 -0.56055,-0.002 0.0441,0.0442 -0.22817,-0.37625 -0.37305,-1.20508 -0.14487,-0.82882 -0.22851,-2.03121 -0.22851,-3.55664 a 1.3567731,1.3567731 0 0 0 -1.35743,-1.35742 c -0.99543,0 -1.99939,0.21662 -2.99023,0.61914 -0.47069,0.19122 -0.85813,0.37276 -1.20312,0.58985 -0.345,0.21708 -0.73674,0.40552 -0.97461,1.11914 a 1.3567731,1.3567731 0 0 0 -0.043,0.16406 c -0.19166,0.95825 -0.18555,2.36773 -0.18555,5.02539 0,1.32732 0.0301,2.36206 0.0957,3.14453 0.0328,0.39123 0.0712,0.71576 0.13672,1.01953 0.0655,0.30377 0.0295,0.58032 0.52539,1.07617 a 1.3567731,1.3567731 0 0 0 0.66407,0.36524 c 1.15366,0.25636 2.67383,0.35156 4.69531,0.35156 4.13507,0 7.69117,-0.99962 10.51758,-3.06055 a 1.3567731,1.3567731 0 0 0 0.002,-0.002 c 1.99373,-1.45933 3.33693,-3.27743 3.98242,-5.30859 0.25151,2.07704 0.94145,3.98997 2.34375,5.46875 1.78897,1.88656 4.47456,2.74218 7.74414,2.74218 1.8654,0 3.38375,-0.24249 4.59766,-0.9414 a 1.3567731,1.3567731 0 0 0 0.18164,-0.125 c 0.5848,-0.47846 0.69909,-1.00649 0.80078,-1.51563 0.10169,-0.50913 0.13672,-1.06717 0.13672,-1.73437 0,-0.65206 -0.0246,-1.188 -0.0937,-1.65821 -0.0691,-0.4702 -0.0554,-0.89327 -0.62305,-1.46093 a 1.3567731,1.3567731 0 0 0 -0.95898,-0.39844 c -0.46691,0 -0.48044,0.0807 -0.57227,0.11719 -0.0918,0.0365 -0.16124,0.0699 -0.23633,0.10742 -0.74914,0.37457 -1.63324,0.57617 -2.71289,0.57617 -1.37056,0 -2.09105,-0.31601 -2.47265,-0.71875 -0.49076,-0.54782 -0.72852,-1.15873 -0.72852,-2.08398 0,-1.04956 0.17459,-1.8722 0.4707,-2.50391 0.33624,-0.71729 0.69371,-1.15162 0.98633,-1.37109 1.00124,-0.75093 2.3434,-1.16797 4.18555,-1.16797 l 0.2793,0 a 1.3567731,1.3567731 0 0 0 0.81445,-0.27149 c 0.57464,-0.43097 0.75016,-0.97407 0.86719,-1.48046 0.11702,-0.5064 0.15625,-1.04894 0.15625,-1.68555 -1e-5,-0.60497 -0.0198,-1.08882 -0.0723,-1.50781 -0.0262,-0.2095 -0.0575,-0.40165 -0.125,-0.61914 -0.0676,-0.2175 -0.12408,-0.49664 -0.53125,-0.83594 a 1.3567731,1.3567731 0 0 0 -0.54101,-0.27344 c -0.34627,-0.0866 -0.41802,-0.0623 -0.62696,-0.0703 -0.20893,-0.008 -0.464,-0.0117 -0.78125,-0.0117 -3.45071,0 -6.52177,1.09879 -8.97656,3.25781 a 1.3567731,1.3567731 0 0 0 -0.006,0.006 c -1.69951,1.51299 -2.78556,3.46315 -3.32422,5.68555 -0.23256,-1.05269 -0.59684,-2.05002 -1.24609,-2.89063 -0.91838,-1.24809 -2.08583,-2.23036 -3.45117,-2.88281 -1.17344,-0.57277 -2.34996,-1.07975 -3.5293,-1.51953 -1.07663,-0.42565 -1.97749,-0.86911 -2.71484,-1.31836 -0.5542,-0.37447 -0.58594,-0.53981 -0.58594,-0.66016 0,-0.34446 0.059,-0.48864 0.35156,-0.75195 0.34849,-0.31364 0.81337,-0.56279 1.4707,-0.73242 a 1.3567731,1.3567731 0 0 0 0.0273,-0.008 c 0.79983,-0.22496 1.55314,-0.38546 2.2539,-0.48243 0.76103,-0.10147 1.37768,-0.14843 1.82032,-0.14843 0.51679,0 0.95581,0.024 1.31054,0.0684 a 1.3567731,1.3567731 0 0 0 1.16797,-0.42969 c 0.61323,-0.66896 0.83702,-1.44422 1.04688,-2.4336 0.19315,-0.91056 0.31054,-1.46207 0.31054,-2.04101 0,-0.35502 0.0916,-0.42658 -0.10937,-1.0293 a 1.3567731,1.3567731 0 0 0 -0.32813,-0.5293 c -0.34427,-0.34426 -0.58122,-0.38027 -0.77929,-0.43554 -0.19808,-0.0553 -0.37297,-0.0816 -0.56446,-0.10352 -0.38297,-0.0439 -0.8255,-0.0605 -1.375,-0.0605 z m 105.54493,0.12109 c -0.86491,0 -1.73574,0.19225 -2.5918,0.54101 -0.81429,0.33176 -1.47401,0.683 -2.00781,1.2168 -0.40465,0.40465 -0.35979,0.57276 -0.39844,0.71875 -0.0387,0.14599 -0.0572,0.26325 -0.0742,0.39063 -0.034,0.25475 -0.0547,0.54334 -0.0723,0.90429 -0.0352,0.72192 -0.0527,1.72055 -0.0527,3.02539 a 1.3567731,1.3567731 0 0 0 0,0.0117 l 0.11914,13.87891 c -3.9e-4,4.58152 -0.13974,7.56347 -0.29687,8.42773 a 1.3567731,1.3567731 0 0 0 -0.0234,0.24219 c 0,0.32236 0.1532,0.71812 0.36719,0.95703 0.21398,0.23892 0.43412,0.343 0.59961,0.4043 0.33096,0.1226 0.5213,0.11523 0.71093,0.11523 2.26628,0 4.0254,-0.31247 5.26953,-1.41015 0.38707,-0.32744 0.41937,-0.54813 0.4668,-0.69336 0.0496,-0.15183 0.0706,-0.26359 0.0898,-0.38086 0.0385,-0.23455 0.06,-0.47883 0.0781,-0.78125 0.0362,-0.60484 0.0527,-1.42471 0.0527,-2.49219 0,-1.99874 -0.0302,-3.8587 -0.0781,-5.62305 l 0.22656,-0.47461 a 1.3567731,1.3567731 0 0 0 0.0254,-0.0547 c 0.11115,-0.26397 0.36319,-0.62743 0.82031,-1.04102 0.36989,-0.33465 0.60635,-0.4082 0.88868,-0.4082 0.23113,0 0.26378,0.0286 0.33593,0.0918 0.0722,0.0632 0.20701,0.23574 0.31836,0.63476 0.25929,0.92911 0.42969,2.52802 0.42969,4.67578 0,2.1587 -0.12899,4.41488 -0.39062,6.76953 a 1.3567731,1.3567731 0 0 0 1.14453,1.49219 l 1.32031,0.19922 a 1.3567731,1.3567731 0 0 0 0.20312,0.0156 c 0.6694,0 1.4172,-0.0954 2.29688,-0.26562 0.46387,-0.0898 0.8481,-0.18459 1.2168,-0.33594 0.36869,-0.15134 0.86421,-0.30459 1.15429,-1.07812 a 1.3567731,1.3567731 0 0 0 0.0859,-0.43555 l 0.16016,-5.32031 a 1.3567731,1.3567731 0 0 0 0.002,-0.041 c 0,-2.17639 -0.0408,-3.98463 -0.12305,-5.4375 a 1.3567731,1.3567731 0 0 0 0,-0.0273 c -0.0819,-1.06477 -0.19229,-1.91044 -0.34765,-2.60352 -0.12121,-0.68467 -0.30764,-1.39175 -0.5625,-2.1289 -0.27951,-0.83599 -0.63574,-1.55168 -1.16992,-2.12696 -0.46923,-0.50532 -1.04549,-0.91354 -1.69532,-1.24023 -0.76544,-0.39966 -1.63409,-0.55274 -2.57812,-0.55273 -1.04997,0 -2.10073,0.32251 -3.14649,0.875 -0.29466,0.15183 -0.41891,0.27689 -0.6582,0.41015 0.0179,-1.16464 0.0267,-2.08342 0.0801,-4.25586 0.04,-1.6252 0.075,-2.87381 0.10156,-3.74219 0.0265,-0.86837 0.0664,-1.52101 0.0508,-1.38086 a 1.3567731,1.3567731 0 0 0 0.01,-0.15039 c 0,-0.36665 -0.18074,-0.73978 -0.36328,-0.94335 -0.18254,-0.20358 -0.34553,-0.29106 -0.47266,-0.35157 -0.25427,-0.12101 -0.40805,-0.14007 -0.56055,-0.16406 -0.30498,-0.048 -0.59264,-0.0566 -0.96093,-0.0566 z m -216.087895,0.47851 c -1.196714,0 -2.13329,0.0303 -2.855469,0.0977 -0.361089,0.0337 -0.667362,0.0739 -0.958984,0.14258 -0.291622,0.0686 -0.574727,0.0689 -1.025391,0.51953 -0.593846,0.59384 -0.818516,1.17041 -1.291015,2.18555 -0.472499,1.01514 -1.04479,2.38087 -1.730469,4.11523 -0.819863,2.05772 -1.01992,2.62614 -1.417969,3.66797 -0.476199,-1.39781 -0.843722,-2.52887 -1.523437,-4.42578 l 0,-0.002 c -0.57475,-1.6173 -1.022861,-2.84755 -1.34961,-3.70508 -0.16345,-0.42897 -0.294967,-0.76325 -0.404297,-1.01953 -0.05466,-0.12814 -0.103001,-0.23534 -0.15625,-0.3418 -0.05325,-0.10646 6.8e-5,-0.14642 -0.328125,-0.47461 -0.488564,-0.48859 -0.698817,-0.41241 -0.912109,-0.45703 -0.213292,-0.0446 -0.416206,-0.0664 -0.65625,-0.0859 -0.480088,-0.0391 -1.090911,-0.0566 -1.871094,-0.0566 -1.518225,0 -2.91839,0.0429 -4.205078,0.125 -0.644625,0.0411 -1.144977,0.0834 -1.541016,0.13867 -0.198019,0.0276 -0.366336,0.0557 -0.552734,0.10547 -0.186398,0.0498 -0.40012,-0.10058 -0.90625,0.57422 a 1.3567731,1.3567731 0 0 0 -0.197266,0.37305 l -0.04102,0.11914 a 1.3567731,1.3567731 0 0 0 -0.07422,0.4414 c 0,0.76208 0.216731,1.41469 0.554688,2.40039 a 1.3567731,1.3567731 0 0 0 0.01172,0.0332 c 0.280268,0.75457 0.621477,1.29135 0.970704,1.83594 l -0.330079,3.77343 c -0.774804,8.31091 -1.166015,14.72109 -1.166015,19.27735 a 1.3567731,1.3567731 0 0 0 0.822265,1.24609 c 0.60895,0.26098 1.264258,0.35156 1.97461,0.35156 2.169015,0 3.817344,-0.22129 4.980469,-1.33789 a 1.3567731,1.3567731 0 0 0 0.396484,-1.21679 c -0.02355,-0.13188 -0.09771,-1.05367 -0.13086,-2.39454 -0.03315,-1.34086 -0.04883,-3.18721 -0.04883,-5.52734 10e-7,-2.39456 0.231956,-3.58227 0.355469,-5.35742 0.268437,0.73455 0.442756,1.17989 0.769531,2.09375 a 1.3567731,1.3567731 0 0 0 0,0.002 c 0.786286,2.18561 1.386742,3.86062 1.798828,5.02344 0.412087,1.16282 0.68242,1.99244 0.650391,1.875 a 1.3567731,1.3567731 0 0 0 0.02148,0.0723 c 0.15726,0.47178 0.424887,0.6499 0.589843,0.75977 0.164956,0.10988 0.286167,0.15834 0.400391,0.20117 0.228448,0.0857 0.431968,0.13171 0.671875,0.17969 a 1.3567731,1.3567731 0 0 0 0.01563,0.004 c 0.549011,0.10294 1.154298,0.14257 1.849609,0.14257 0.43245,0 0.836896,-0.0363 1.265625,-0.19335 0.428729,-0.15707 0.925349,-0.50921 1.167969,-1.04297 a 1.3567731,1.3567731 0 0 0 0.06445,-0.16602 l 0.839844,-2.75977 a 1.3567731,1.3567731 0 0 0 0,-0.004 c 0.552168,-1.84056 1.239441,-3.92888 2.060547,-6.25977 0.05132,-0.14105 0.07287,-0.15695 0.123047,-0.29297 0.01375,0.37302 0.02976,0.51107 0.04297,0.92579 a 1.3567731,1.3567731 0 0 0 0,0.0117 c 0.132807,3.34674 0.197266,6.23502 0.197266,8.66407 0,2.41207 -0.04062,4.16193 -0.115234,5.18164 a 1.3567731,1.3567731 0 0 0 -0.0039,0.0996 c 0,0.37978 0.193041,0.75828 0.378907,0.95898 0.185865,0.2007 0.346755,0.28353 0.472656,0.3418 0.251801,0.11653 0.404702,0.13641 0.558594,0.16015 0.307783,0.0475 0.604773,0.0566 0.986328,0.0566 0.846509,0 1.801472,-0.14181 2.919922,-0.39258 0.587343,-0.11526 1.057365,-0.23073 1.49414,-0.42188 0.221256,-0.0968 0.442742,-0.20721 0.685547,-0.43164 0.242805,-0.22443 0.539063,-0.66068 0.539063,-1.1914 0,-6.48507 -0.469781,-13.91923 -1.382813,-22.27344 0.257823,-0.56304 0.504755,-1.16877 0.792969,-2.09766 l 0.002,-0.008 c 0.389009,-1.16749 0.626953,-1.96063 0.626953,-2.78125 0,-0.50558 -0.300085,-0.89435 -0.490234,-1.05664 -0.19015,-0.1623 -0.319172,-0.20983 -0.419922,-0.25 -0.201501,-0.0804 -0.31491,-0.0982 -0.4375,-0.11914 -0.24518,-0.042 -0.493538,-0.0618 -0.8125,-0.0801 -0.637924,-0.0366 -1.53039,-0.0527 -2.716797,-0.0527 z m 254.144535,0.24024 c -0.91884,0 -1.87717,0.22034 -2.91407,0.60547 a 1.3567731,1.3567731 0 0 0 -0.0117,0.004 c -0.5076,0.19409 -0.91714,0.37906 -1.29493,0.63477 -0.37778,0.25571 -0.9375,0.6517 -0.9375,1.55273 0,0.26125 0.0221,0.30523 0.0449,0.45899 0.0228,0.15376 0.0543,0.34378 0.0957,0.57812 0.0182,0.10315 0.0313,0.93668 0.0527,1.45899 -0.24788,0.01 -0.56269,0.0194 -0.77929,0.0293 a 1.3567731,1.3567731 0 0 0 -0.8379,0.3418 c -0.53016,0.47128 -0.61538,0.94115 -0.70117,1.39063 -0.0858,0.44947 -0.11523,0.93199 -0.11523,1.5039 0,0.53695 0.0162,0.96977 0.0605,1.34766 0.0222,0.18894 0.0493,0.36336 0.10546,0.56055 0.0561,0.19718 0.0979,0.43387 0.4336,0.76953 a 1.3567731,1.3567731 0 0 0 0.98242,0.39648 l 0.8418,-0.0156 c -0.0595,2.81654 -0.10352,5.70865 -0.10352,8.82031 0,3.60672 0.01,5.56843 0.0859,6.4043 a 1.3567731,1.3567731 0 0 0 0.008,0.0605 c 0.0961,0.70486 0.28614,1.40809 0.56055,2.10938 a 1.3567731,1.3567731 0 0 0 0.0195,0.0469 c 0.29006,0.66714 0.54435,1.17701 0.9043,1.62696 a 1.3567731,1.3567731 0 0 0 0.0508,0.0605 c 0.14514,0.16128 0.27403,0.29575 0.43945,0.4336 0.16542,0.13785 0.25296,0.41601 1.04883,0.41601 1.18521,0 2.37209,-0.36732 3.53516,-1.00976 l 0.002,0 c 0.55652,-0.30029 1.00085,-0.573 1.375,-0.88086 0.37775,-0.31083 0.88476,-0.64174 0.88476,-1.58789 a 1.3567731,1.3567731 0 0 0 -0.42578,-0.98633 c -0.70138,-0.66131 -1.0905,-1.4447 -1.2207,-2.5625 -0.0673,-0.70447 -0.11328,-2.34323 -0.11328,-4.77149 0,-2.12623 0.0289,-5.06386 0.0684,-8.28125 l 0.53515,0 c 0.77511,0 1.22019,-0.48024 1.4668,-0.81836 0.24661,-0.33811 0.40091,-0.68377 0.55859,-1.09374 a 1.3567731,1.3567731 0 0 0 0.006,-0.0156 c 0.33087,-0.89332 0.48633,-1.8701 0.48633,-2.91016 0,-0.001 -0.039,-0.3562 -0.0976,-0.5039 -0.0586,-0.1477 -0.13438,-0.26544 -0.20704,-0.35547 -0.14531,-0.18007 -0.27195,-0.2613 -0.36718,-0.31836 -0.19047,-0.11413 -0.28694,-0.13384 -0.36719,-0.15625 -0.1605,-0.0448 -0.24783,-0.0547 -0.3457,-0.0664 -0.19574,-0.0234 -0.40198,-0.0343 -0.66993,-0.0449 -0.20772,-0.008 -0.61627,-0.007 -0.89257,-0.0117 0.0533,-1.56152 0.10944,-3.22735 0.14062,-3.58594 a 1.3567731,1.3567731 0 0 0 0.006,-0.11718 c 0,-0.37975 -0.19305,-0.75828 -0.37891,-0.95899 -0.18585,-0.20071 -0.34675,-0.28352 -0.47265,-0.34179 -0.25181,-0.11655 -0.4047,-0.13642 -0.5586,-0.16016 -0.30779,-0.0475 -0.60477,-0.0566 -0.98632,-0.0566 z m -244.404301,2.48047 c -1.071519,0 -2.10978,0.46585 -2.896484,1.21679 -0.811809,0.77491 -1.300781,1.86308 -1.300781,2.98047 0,1.02357 0.317267,2.03076 0.984375,2.78125 a 1.3567731,1.3567731 0 0 0 0.05469,0.0586 c 0.468229,0.46823 1.081321,0.72955 1.72461,0.89258 -0.623286,0.15261 -1.191372,0.37607 -1.681641,0.75976 a 1.3567731,1.3567731 0 0 0 -0.376953,0.46094 c -0.270278,0.54055 -0.217377,0.71766 -0.257813,1.0957 -0.04044,0.37804 -0.0715,0.84529 -0.0957,1.42578 -0.04841,1.16099 -0.07227,2.76869 -0.07227,4.84571 0,4.13918 0.01653,6.46834 0.08398,7.3789 a 1.3567731,1.3567731 0 0 0 0.0059,0.0508 c 0.0904,0.81359 0.269059,1.65403 0.529297,2.52149 0.138022,0.46007 0.272871,0.83785 0.496094,1.20898 0.223223,0.37113 0.65122,0.95703 1.523437,0.95703 1.117394,0 2.229535,-0.39374 3.439454,-1.04297 0.584106,-0.31341 1.042404,-0.58748 1.423828,-0.88476 0.190712,-0.14864 0.365804,-0.30015 0.539062,-0.51953 0.0098,-0.0124 0.01147,-0.0475 0.02148,-0.0606 0.213491,0.67807 0.529976,1.31723 0.96289,1.88867 0.154051,0.20515 0.30359,0.38762 0.515625,0.57032 0.213557,0.18401 0.514083,0.44921 1.125,0.44921 1.364877,0 2.852048,-0.29056 4.490235,-0.82617 1.747256,-0.53523 3.366484,-1.42784 4.824219,-2.65234 a 1.3567731,1.3567731 0 0 0 0.002,-0.002 c 0.39925,-0.33663 0.62418,-0.76106 0.9375,-1.14454 0.0569,1.31866 0.44815,2.5728 1.23047,3.60547 0.15405,0.20515 0.30359,0.38761 0.51563,0.57032 0.21356,0.18401 0.5141,0.44921 1.125,0.44921 1.36487,0 2.85205,-0.29056 4.49023,-0.82617 1.74726,-0.53523 3.36649,-1.42784 4.82422,-2.65234 a 1.3567731,1.3567731 0 0 0 0.002,-0.002 c 1.57445,-1.32748 2.52149,-3.05147 2.52149,-4.91797 a 1.3567731,1.3567731 0 0 0 -0.002,-0.0391 c -0.0355,-1.24399 -0.52422,-2.43688 -1.35156,-3.42968 -0.75772,-0.90928 -1.6203,-1.6478 -2.57617,-2.18946 l 0.01,0.004 c -0.9907,-0.57156 -1.70571,-1.0749 -2.10352,-1.4375 -0.39781,-0.3626 -0.33594,-0.5596 -0.33594,-0.22852 0,-0.0105 -0.0509,-0.0398 0.26953,-0.29101 0.31914,-0.25022 0.98008,-0.58721 1.93555,-0.89063 0.99883,-0.29849 1.7364,-0.41992 1.99609,-0.41992 a 1.3567731,1.3567731 0 0 0 1.35547,-1.40429 c -0.0347,-1.00547 -0.33809,-1.98742 -0.86523,-2.87891 -0.24056,-0.41991 -0.4677,-0.76579 -0.75586,-1.07617 -0.29124,-0.31371 -0.68817,-0.71485 -1.45313,-0.71485 -2.56113,0 -5.01274,0.77739 -7.23632,2.26953 -2.23476,1.49964 -3.64063,3.41786 -3.64063,5.60743 0,1.16317 0.53006,2.26433 1.36133,3.16211 a 1.3567731,1.3567731 0 0 0 0.0176,0.0176 c 0.75798,0.7883 1.60782,1.44084 2.53906,1.9375 0.71991,0.38395 1.37219,0.82444 1.96484,1.32227 0.51262,0.43059 0.51563,0.64888 0.51563,0.56055 0,0.13554 -0.12088,0.51047 -1.02735,1.10742 -0.76342,0.50274 -2.09024,0.85547 -4.01367,0.85547 a 1.3567731,1.3567731 0 0 0 -0.19726,0.0176 c 0.21773,-0.60678 0.46875,-1.20889 0.46875,-1.86133 a 1.3567731,1.3567731 0 0 0 -0.002,-0.0391 c -0.0355,-1.24399 -0.52422,-2.43688 -1.35156,-3.42968 -0.75772,-0.90928 -1.620295,-1.6478 -2.576171,-2.18946 l 0.0098,0.004 c -0.990696,-0.57156 -1.705705,-1.0749 -2.103516,-1.4375 -0.39781,-0.3626 -0.335937,-0.5596 -0.335937,-0.22852 0,-0.0105 -0.05092,-0.0398 0.269531,-0.29101 0.319141,-0.25022 0.980079,-0.58722 1.935547,-0.89063 0.998838,-0.29849 1.7364,-0.41992 1.99609,-0.41992 a 1.3567731,1.3567731 0 0 0 1.35547,-1.40429 c -0.0347,-1.00547 -0.33808,-1.98742 -0.86523,-2.87891 -0.24055,-0.41991 -0.46771,-0.76579 -0.75586,-1.07617 -0.291241,-0.31371 -0.688158,-0.71485 -1.453126,-0.71485 -2.561136,0 -5.012737,0.77739 -7.236328,2.26953 -2.234758,1.49964 -3.640625,3.41787 -3.640625,5.60743 10e-7,1.16316 0.530052,2.26433 1.361328,3.16211 a 1.3567731,1.3567731 0 0 0 0.01758,0.0176 c 0.757987,0.78831 1.60782,1.44084 2.539062,1.9375 0.719913,0.38395 1.372196,0.82445 1.964844,1.32227 0.512615,0.4306 0.515625,0.64889 0.515625,0.56055 0,0.13554 -0.120874,0.51047 -1.027344,1.10742 -0.763411,0.50273 -2.090241,0.85547 -4.013672,0.85547 a 1.3567731,1.3567731 0 0 0 -1.27539,0.90039 c -0.154363,-0.38242 -0.385865,-0.75254 -0.44336,-1.15821 -0.0943,-0.88423 -0.151902,-2.37644 -0.152343,-4.4082 l 0,-0.0137 c 0,-0.002 0,-0.002 0,-0.004 l 0.08008,-6.45898 0.03711,-2.03516 a 1.3567731,1.3567731 0 0 0 -0.3125,-0.89453 c -0.39301,-0.47161 -0.801166,-0.56463 -1.136718,-0.63672 -0.230715,-0.0496 -0.468188,-0.0523 -0.705079,-0.0625 0.427824,-0.19294 0.840104,-0.42868 1.191407,-0.74804 a 1.3567731,1.3567731 0 0 0 0.002,-0.002 c 0.843014,-0.76971 1.363281,-1.87006 1.363281,-3.00195 0,-1.03806 -0.34822,-2.06666 -1.050781,-2.81055 -0.708704,-0.75039 -1.748887,-1.14648 -2.78711,-1.14648 z m 36.171871,0 c -1.07152,0 -2.10978,0.46586 -2.89648,1.21679 -0.81181,0.77491 -1.30078,1.86308 -1.30078,2.98047 0,1.02357 0.31726,2.03076 0.98437,2.78125 a 1.3567731,1.3567731 0 0 0 0.0547,0.0586 c 0.46823,0.46823 1.08132,0.72954 1.72461,0.89258 -0.62329,0.15261 -1.19137,0.37607 -1.68164,0.75976 a 1.3567731,1.3567731 0 0 0 -0.37695,0.46094 c -0.27029,0.54056 -0.21738,0.71766 -0.25782,1.0957 -0.0404,0.37804 -0.0715,0.84529 -0.0957,1.42578 -0.0484,1.16099 -0.0723,2.76869 -0.0723,4.84571 0,4.13918 0.0165,6.4683 0.084,7.3789 a 1.3567731,1.3567731 0 0 0 0.006,0.0508 c 0.0904,0.81358 0.26906,1.65402 0.5293,2.52149 0.13802,0.46007 0.27286,0.83785 0.49609,1.20898 0.22323,0.37113 0.65122,0.95703 1.52344,0.95703 1.11739,0 2.22953,-0.39374 3.43945,-1.04297 0.58411,-0.31341 1.04241,-0.58748 1.42383,-0.88476 0.19071,-0.14864 0.3658,-0.30015 0.53906,-0.51953 0.17326,-0.21939 0.39453,-0.53959 0.39453,-1.07031 a 1.3567731,1.3567731 0 0 0 -0.22265,-0.74414 c -0.45556,-0.69419 -0.71746,-1.39708 -0.82422,-2.1504 -0.0943,-0.88422 -0.1519,-2.37644 -0.15235,-4.4082 l 0,-0.0137 c 0,-0.002 0,-0.002 0,-0.004 l 0.0801,-6.45898 0.0371,-2.03516 a 1.3567731,1.3567731 0 0 0 -0.3125,-0.89453 c -0.39301,-0.47162 -0.80116,-0.56463 -1.13672,-0.63672 -0.23071,-0.0496 -0.46818,-0.0523 -0.70508,-0.0625 0.42783,-0.19294 0.84011,-0.42868 1.19141,-0.74804 a 1.3567731,1.3567731 0 0 0 0.002,-0.002 c 0.84301,-0.7697 1.36329,-1.87006 1.36328,-3.00195 0,-1.03805 -0.34822,-2.06666 -1.05078,-2.81055 -0.7087,-0.75038 -1.74888,-1.14648 -2.78711,-1.14648 z m 161.03711,5.64062 c -2.56113,0 -5.01274,0.77739 -7.23632,2.26953 -2.23476,1.49964 -3.64063,3.41786 -3.64063,5.60743 0,1.16317 0.53006,2.26433 1.36133,3.16211 a 1.3567731,1.3567731 0 0 0 0.0176,0.0176 c 0.75798,0.7883 1.60782,1.44084 2.53906,1.9375 0.71991,0.38395 1.37219,0.82444 1.96484,1.32227 0.51262,0.43059 0.51563,0.64888 0.51563,0.56055 0,0.13554 -0.12088,0.51047 -1.02735,1.10742 -0.76342,0.50274 -2.09024,0.85547 -4.01367,0.85547 a 1.3567731,1.3567731 0 0 0 -1.35742,1.35742 l 0,0.2793 c 0,1.43027 0.43346,2.78708 1.27539,3.89843 0.15405,0.20515 0.30359,0.38761 0.51563,0.57032 0.21356,0.18401 0.5141,0.44921 1.125,0.44921 1.36487,0 2.85205,-0.29056 4.49023,-0.82617 1.74726,-0.53523 3.36649,-1.42784 4.82422,-2.65234 a 1.3567731,1.3567731 0 0 0 0.002,-0.002 c 1.57445,-1.32748 2.52149,-3.05147 2.52149,-4.91797 a 1.3567731,1.3567731 0 0 0 -0.002,-0.0391 c -0.0355,-1.24399 -0.52422,-2.43688 -1.35156,-3.42968 -0.75772,-0.90928 -1.6203,-1.6478 -2.57617,-2.18946 l 0.01,0.004 c -0.9907,-0.57156 -1.70571,-1.0749 -2.10352,-1.4375 -0.39781,-0.3626 -0.33594,-0.5596 -0.33594,-0.22852 0,-0.0105 -0.0509,-0.0398 0.26953,-0.29101 0.31914,-0.25022 0.98008,-0.58721 1.93555,-0.89063 0.99883,-0.29849 1.7364,-0.41992 1.99609,-0.41992 a 1.3567731,1.3567731 0 0 0 1.35547,-1.40429 c -0.0347,-1.00547 -0.33809,-1.98742 -0.86523,-2.87891 -0.24056,-0.41991 -0.4677,-0.76579 -0.75586,-1.07617 -0.29124,-0.31371 -0.68817,-0.71485 -1.45313,-0.71485 z m -70.58789,0.11914 c -0.7798,0 -1.58063,0.15339 -2.40039,0.42383 -0.82803,0.24658 -1.51522,0.53282 -2.07812,1.0957 -0.30786,0.30789 -0.32614,0.48367 -0.36914,0.61719 -0.043,0.13352 -0.0632,0.23229 -0.0801,0.33203 -0.0337,0.1995 -0.0513,0.39612 -0.0664,0.63282 -0.0301,0.47339 -0.043,1.09444 -0.043,1.89648 a 1.3567731,1.3567731 0 0 0 0,0.0117 l 0.0801,9.08008 c -4.3e-4,3.13697 -0.11392,5.26668 -0.25781,6.06836 a 1.3567731,1.3567731 0 0 0 -0.0215,0.24023 c 10e-6,0.32236 0.15321,0.71812 0.36719,0.95703 0.21399,0.23892 0.43413,0.343 0.59961,0.4043 0.33097,0.1226 0.52131,0.11523 0.71094,0.11523 2.3356,0 4.11755,-0.2823 5.33984,-1.46093 a 1.3567731,1.3567731 0 0 0 0.0176,-0.0176 c 0.40441,-0.40441 0.33513,-0.53174 0.36328,-0.63477 0.0281,-0.10303 0.0377,-0.1655 0.0469,-0.22656 0.0182,-0.12212 0.0282,-0.22852 0.0371,-0.35547 0.0178,-0.25389 0.0306,-0.57723 0.041,-0.99805 0.0208,-0.84162 0.0312,-2.05825 0.0312,-3.66406 l 0,-3.51953 c 0,0.2728 0.0557,-0.14148 0.40039,-0.67383 0.87034,-1.24875 1.84345,-1.75165 3.36328,-1.76172 l 0.35157,0.0547 a 1.3567731,1.3567731 0 0 0 1.41992,-0.73242 l 0.0469,-0.0937 c -0.43572,1.24705 -0.68945,2.57037 -0.68945,3.9668 0,2.85759 0.80388,5.33437 2.4668,7.18554 1.69373,1.88547 4.17989,2.8125 7.08984,2.8125 2.74503,0 4.66709,-0.19845 6.08008,-1.15429 a 1.3567731,1.3567731 0 0 0 0.30859,-0.28711 c 0.91198,-1.16732 1.28907,-2.69593 1.28907,-4.4375 0,-0.2772 -0.004,-0.49252 -0.0274,-0.71289 -0.0116,-0.11019 -0.0198,-0.21136 -0.082,-0.40821 -0.0311,-0.0984 -0.0644,-0.22509 -0.2168,-0.43164 -0.15236,-0.20655 -0.56812,-0.56445 -1.11132,-0.56445 -0.29666,0 -0.73281,0.0922 -1.08008,0.43945 l 0.25,-0.19726 c -0.68163,0.41827 -1.74126,0.66075 -3.01367,0.77343 1.11839,-0.69352 2.10622,-1.50132 2.93554,-2.4375 9.1e-4,-0.001 0.003,-9.4e-4 0.004,-0.002 1.61437,-1.79395 2.54101,-3.76807 2.54101,-5.81836 0,-1.96585 -0.73708,-3.72954 -2.23632,-4.66797 -1.24562,-0.79548 -2.67076,-1.20898 -4.16016,-1.20898 -3.3537,0 -6.20745,1.13323 -8.17969,3.38281 a 1.3567731,1.3567731 0 0 0 -0.002,0.002 c -0.8858,1.01235 -1.52956,2.15261 -2.00586,3.36329 0.50286,-0.99635 0.6582,-2.15858 0.6582,-3.67188 0,-0.85438 -0.089,-1.60775 -0.52148,-2.31055 a 1.3567731,1.3567731 0 0 0 -1.15625,-0.64648 c -1.55797,0 -3.05999,0.46565 -4.39844,1.33203 -0.12935,0.0769 -0.23952,0.18937 -0.36523,0.27344 0.0152,-0.20503 0.0106,-0.47252 0.0312,-0.65821 a 1.3567731,1.3567731 0 0 0 0.01,-0.15039 c 0,-0.57759 -0.43109,-1.0723 -0.70117,-1.24023 -0.27008,-0.16793 -0.45296,-0.20351 -0.62109,-0.23828 -0.33628,-0.0695 -0.62955,-0.0781 -0.9961,-0.0781 z m -80.58007,0.32032 c -0.77981,0 -1.58064,0.15339 -2.4004,0.42382 -0.82527,0.2457 -1.51291,0.5266 -2.08007,1.09375 -0.53043,0.53043 -0.41868,0.72553 -0.46094,0.94336 -0.0423,0.21783 -0.0632,0.43116 -0.082,0.68555 -0.0377,0.50877 -0.0547,1.16703 -0.0547,2.01172 a 1.3567731,1.3567731 0 0 0 0,0.0176 l 0.11914,9 c -6.2e-4,2.70314 -0.0998,4.6524 -0.26172,5.69336 a 1.3567731,1.3567731 0 0 0 -0.0176,0.20898 c 0,0.38794 0.20338,0.77121 0.39063,0.9668 0.18725,0.19559 0.34333,0.27082 0.46289,0.32422 0.23911,0.10679 0.37393,0.12107 0.50586,0.14062 0.26385,0.0391 0.49897,0.0449 0.79883,0.0449 0.7096,0 1.49384,-0.11054 2.4082,-0.31054 0.98774,-0.21608 1.81658,-0.51384 2.4707,-1.16797 0.54774,-0.54769 0.37803,-0.65111 0.40625,-0.78711 0.0282,-0.13601 0.042,-0.24697 0.0547,-0.37305 0.0255,-0.25215 0.0427,-0.55383 0.0566,-0.93945 0.0278,-0.77125 0.041,-1.86369 0.041,-3.29883 l 0,-3.04102 a 1.3567731,1.3567731 0 0 0 -0.002,-0.0371 l -0.0391,-1.46094 0,-0.27149 0.17774,-0.42968 a 1.3567731,1.3567731 0 0 0 0.0332,-0.0898 c 0.0594,-0.17823 0.24942,-0.48274 0.64648,-0.8457 0.2908,-0.24633 0.63687,-0.38672 1.26563,-0.38672 0.14602,0 0.10186,-0.006 0.15234,0.043 0.0505,0.0493 0.18668,0.23878 0.29297,0.6543 a 1.3567731,1.3567731 0 0 0 0.002,0.008 c 0.2364,0.90259 0.39454,2.52796 0.39453,4.73633 0,2.18679 -0.12718,4.4572 -0.38867,6.81054 a 1.3567731,1.3567731 0 0 0 1.14453,1.49219 l 1.31836,0.19922 a 1.3567731,1.3567731 0 0 0 0.20313,0.0156 c 0.68537,0 1.45857,-0.11292 2.38476,-0.30859 0.47359,-0.0867 0.85475,-0.16977 1.22266,-0.31445 0.1872,-0.0736 0.37632,-0.15532 0.60938,-0.3457 0.23259,-0.19002 0.5787,-0.6073 0.58007,-1.18555 l 0.11914,-4.64844 a 1.3567731,1.3567731 0 0 0 0.002,-0.0352 c 0,-2.28227 -0.039,-4.16869 -0.1211,-5.67382 a 1.3567731,1.3567731 0 0 0 -0.002,-0.0273 c -0.0827,-1.10287 -0.19288,-2.00086 -0.3457,-2.73437 -0.14638,-0.70264 -0.36271,-1.44427 -0.64063,-2.22657 -0.2764,-0.85736 -0.6258,-1.58927 -1.14258,-2.18554 -0.47523,-0.54835 -1.08149,-0.9777 -1.76367,-1.3086 -0.77802,-0.41998 -1.66799,-0.59961 -2.62109,-0.5996 -1.04995,0 -2.09777,0.32479 -3.12305,0.88281 -0.18025,0.0958 -0.24722,0.19081 -0.40625,0.27929 a 1.3567731,1.3567731 0 0 0 0.006,-0.0859 c 0,-0.57424 -0.42888,-1.06941 -0.69922,-1.23828 -0.27033,-0.16887 -0.45478,-0.20533 -0.62304,-0.24024 -0.33654,-0.0698 -0.6276,-0.0781 -0.99414,-0.0781 z m 127.73437,0 c -0.7798,0 -1.58063,0.15339 -2.40039,0.42382 -0.82528,0.2457 -1.51293,0.52661 -2.08008,1.09375 -0.53046,0.53042 -0.41867,0.72553 -0.46094,0.94336 -0.0423,0.21784 -0.0632,0.43116 -0.082,0.68555 -0.0377,0.50878 -0.0547,1.16704 -0.0547,2.01172 a 1.3567731,1.3567731 0 0 0 0,0.0176 l 0.11915,9 c -6.2e-4,2.70314 -0.0998,4.65241 -0.26172,5.69336 a 1.3567731,1.3567731 0 0 0 -0.0176,0.20898 c 0,0.38795 0.20337,0.77121 0.39062,0.9668 0.18726,0.19558 0.34334,0.27082 0.46289,0.32422 0.23912,0.10678 0.37394,0.12107 0.50586,0.14062 0.26386,0.0391 0.49898,0.0449 0.79883,0.0449 0.7096,0 1.49385,-0.11053 2.40821,-0.31054 0.98774,-0.21608 1.81657,-0.51382 2.4707,-1.16797 0.54773,-0.54769 0.37802,-0.65111 0.40625,-0.78711 0.0282,-0.13601 0.042,-0.24697 0.0547,-0.37305 0.0254,-0.25215 0.0427,-0.55383 0.0566,-0.93945 0.0278,-0.77125 0.041,-1.86369 0.041,-3.29883 l 0,-3.04102 a 1.3567731,1.3567731 0 0 0 -0.002,-0.0371 l -0.0391,-1.46094 0,-0.27149 0.17773,-0.42968 a 1.3567731,1.3567731 0 0 0 0.0332,-0.0898 c 0.0594,-0.17823 0.24942,-0.48275 0.64649,-0.8457 0.2908,-0.24633 0.63687,-0.38672 1.26562,-0.38672 0.14602,0 0.10186,-0.006 0.15235,0.043 0.0505,0.0493 0.18667,0.23878 0.29297,0.6543 a 1.3567731,1.3567731 0 0 0 0.002,0.008 c 0.23639,0.9026 0.39453,2.52796 0.39453,4.73633 0,2.18679 -0.12719,4.4572 -0.38867,6.81054 a 1.3567731,1.3567731 0 0 0 1.14453,1.49219 l 1.31836,0.19922 a 1.3567731,1.3567731 0 0 0 0.20312,0.0156 c 0.68538,0 1.45857,-0.11292 2.38477,-0.30859 0.47359,-0.0867 0.85475,-0.16976 1.22266,-0.31445 0.1872,-0.0736 0.37632,-0.15531 0.60937,-0.3457 0.23259,-0.19002 0.57871,-0.60731 0.58008,-1.18555 l 0.11914,-4.64844 a 1.3567731,1.3567731 0 0 0 0.002,-0.0352 c 0,-2.28227 -0.039,-4.16869 -0.12109,-5.67382 a 1.3567731,1.3567731 0 0 0 -0.002,-0.0273 c -0.0827,-1.10288 -0.1929,-2.00089 -0.34571,-2.73437 -0.14638,-0.70262 -0.36272,-1.44428 -0.64062,-2.22657 -0.2764,-0.85736 -0.62581,-1.58927 -1.14258,-2.18554 -0.47523,-0.54834 -1.0815,-0.9777 -1.76367,-1.3086 -0.77803,-0.41998 -1.66799,-0.5996 -2.6211,-0.5996 -1.04995,0 -2.09777,0.32479 -3.12304,0.88281 -0.18025,0.0958 -0.24723,0.19081 -0.40625,0.27929 a 1.3567731,1.3567731 0 0 0 0.006,-0.0859 c 0,-0.57424 -0.42889,-1.06941 -0.69922,-1.23828 -0.27034,-0.16887 -0.45478,-0.20533 -0.62305,-0.24024 -0.33653,-0.0698 -0.62759,-0.0781 -0.99414,-0.0781 z m 56.69336,0.11914 c -3.43822,0 -6.3938,1.17269 -8.51758,3.47851 a 1.3567731,1.3567731 0 0 0 0,0.002 c -2.03937,2.2167 -3.11914,4.90623 -3.11914,7.83789 0,2.84713 0.8597,5.34727 2.5957,7.23828 1.76009,1.91723 4.26554,2.8789 7.16016,2.8789 2.95409,0 5.51952,-1.11596 7.28516,-3.25195 1.73892,-2.0987 2.63281,-4.65531 2.63281,-7.46484 0,-1.18852 -0.16482,-2.29941 -0.51367,-3.31641 -0.32836,-0.98319 -0.72731,-1.80792 -1.28125,-2.47266 -0.48683,-0.58418 -1.09226,-1.11825 -1.79883,-1.62109 -0.29086,-0.2264 -0.58211,-0.41065 -0.88086,-0.57422 0.006,-0.12283 0.0352,-0.25651 0.0352,-0.37695 0,-0.52095 0.14639,-1.0137 -0.5586,-1.71875 -0.4862,-0.48616 -0.65447,-0.39421 -0.83984,-0.4375 -0.18538,-0.0433 -0.35896,-0.0683 -0.5625,-0.0918 -0.40708,-0.047 -0.92199,-0.08 -1.58008,-0.10742 a 1.3567731,1.3567731 0 0 0 -0.0566,-0.002 z m -158.71484,0.16015 c -4.08521,0 -7.45451,1.14469 -9.80469,3.52539 -2.29767,2.32751 -3.47266,5.38286 -3.47266,8.87305 0,2.03387 0.64518,3.94664 1.875,5.57617 1.28654,1.70466 3.21934,2.66016 5.36328,2.66016 1.34682,0 2.59703,-0.28174 3.68164,-0.82031 -0.0708,0.40418 -0.0519,0.94572 -0.15039,1.30468 -0.3474,1.26551 -0.75628,2.15817 -1.10742,2.63868 -0.40422,0.55314 -0.87257,0.97889 -1.43555,1.3125 -0.6318,0.3744 -1.12157,0.55034 -1.35937,0.58789 a 1.3567731,1.3567731 0 0 0 -0.084,0.0156 c -0.37582,0.0835 -0.78392,0.12695 -1.22656,0.12695 l -0.75976,0 a 1.3567731,1.3567731 0 0 0 -1.35742,1.35743 c 0,0.75158 0.13602,1.52261 0.38085,2.31836 0.23365,0.75934 0.48524,1.39402 0.8125,1.93945 0.13741,0.22901 0.25686,0.41527 0.40625,0.60156 0.0747,0.0931 0.15286,0.18698 0.29688,0.30664 0.14402,0.11967 0.35724,0.35156 0.94141,0.35156 1.95162,0 3.88229,-0.54492 5.73046,-1.57031 1.17323,-0.63322 2.22009,-1.46594 3.11719,-2.48047 0.97072,-1.06963 1.71547,-2.48258 2.31446,-4.2207 l 0,-0.004 c 0.61972,-1.77213 0.91601,-3.76264 0.91601,-5.96289 a 1.3567731,1.3567731 0 0 0 0,-0.0117 l -0.0801,-9.4746 0,-5.07227 a 1.3567731,1.3567731 0 0 0 -0.70703,-1.19141 c -0.48068,-0.26219 -0.98167,-0.2171 -1.46289,-0.25 -0.0163,-0.29903 -0.0299,-0.60035 -0.0723,-0.88476 -0.002,-0.41014 -0.22226,-0.80401 -0.41796,-1 -0.19681,-0.19711 -0.35891,-0.27247 -0.48828,-0.32813 -0.25875,-0.11131 -0.42588,-0.13428 -0.60547,-0.16015 -0.35919,-0.0517 -0.74461,-0.0645 -1.24414,-0.0645 z m 90.06835,0.041 c -3.35369,0 -6.20744,1.13323 -8.17968,3.38281 a 1.3567731,1.3567731 0 0 0 -0.002,0.002 c -1.88297,2.15197 -2.85546,4.80482 -2.85546,7.73243 0,2.85759 0.80386,5.33436 2.46679,7.18554 1.69373,1.88548 4.17989,2.8125 7.08985,2.8125 2.74503,0 4.66709,-0.19846 6.08007,-1.15429 a 1.3567731,1.3567731 0 0 0 0.3086,-0.28711 c 0.91198,-1.16732 1.28906,-2.69593 1.28906,-4.4375 0,-0.27721 -0.004,-0.49252 -0.0273,-0.71289 -0.0116,-0.11019 -0.0198,-0.21136 -0.082,-0.40821 -0.0311,-0.0984 -0.0644,-0.22509 -0.2168,-0.43164 -0.15236,-0.20654 -0.56812,-0.56445 -1.11133,-0.56445 -0.29669,0 -0.73257,0.0918 -1.08008,0.43945 l 0.25,-0.19726 c -0.68163,0.41827 -1.74125,0.66075 -3.01367,0.77343 1.11839,-0.69352 2.10623,-1.50132 2.93555,-2.4375 9e-4,-0.001 0.003,-9.4e-4 0.004,-0.002 1.61437,-1.79395 2.54102,-3.76807 2.54102,-5.81836 0,-1.96586 -0.7371,-3.72954 -2.23633,-4.66797 -1.24562,-0.79548 -2.67074,-1.20898 -4.16016,-1.20898 z m -115.06054,2.39844 c -0.0143,0.0143 -0.0211,0.0269 -0.0352,0.041 -0.002,0.003 -0.007,0.003 -0.01,0.006 l 0.0449,-0.0469 z m 127.73437,0 c -0.0143,0.0143 -0.0211,0.0269 -0.0352,0.041 -0.002,0.003 -0.007,0.003 -0.01,0.006 l 0.0449,-0.0469 z m -30.68945,3.96289 c -0.0692,0.68359 -0.39848,1.37978 -1.34375,2.20703 -0.46519,0.39507 -0.65514,0.33783 -1.02344,0.54297 0.16061,-0.61585 0.39805,-1.17721 0.76172,-1.66993 0.58967,-0.7989 1.06127,-1.0322 1.60547,-1.08007 z m 16.95312,0 c -0.0692,0.68359 -0.39848,1.37978 -1.34374,2.20703 -0.46519,0.39507 -0.65514,0.33783 -1.02344,0.54297 0.1606,-0.61585 0.39805,-1.17721 0.76172,-1.66993 0.58967,-0.79891 1.06126,-1.0322 1.60546,-1.08007 z m -91.11523,0.52539 c -0.0661,1.12167 -0.12695,2.21628 -0.12695,4.50976 0,-0.18694 -0.081,0.27417 -0.63282,0.91797 -0.42136,0.49159 -0.762,0.64453 -1.37109,0.64453 -0.62829,1e-5 -0.85692,-0.12994 -1.09961,-0.41992 -0.28677,-0.3732 -0.42187,-0.74657 -0.42187,-1.30273 0,-1.38315 0.36962,-2.36885 1.12695,-3.20899 l 0.002,-0.002 c 0.64167,-0.70834 1.45603,-1.03501 2.52344,-1.13867 z m 158.25195,0.38086 c 0.0316,0.15069 -0.0319,0.23296 0.0801,0.45703 a 1.3567731,1.3567731 0 0 0 1.21289,0.75 l 0.31836,0 c 0.27895,0 0.61378,0.0875 1.06055,0.3789 a 1.3567731,1.3567731 0 0 0 0.0312,0.0195 c 0.27578,0.16902 0.5918,0.64625 0.5918,2.04296 0,1.40362 -0.32777,2.23133 -0.81836,2.73829 a 1.3567731,1.3567731 0 0 0 -0.0156,0.0156 c -0.59292,0.6338 -1.03517,0.81055 -1.5293,0.81055 -0.71507,0 -1.14817,-0.13861 -1.35546,-0.26953 a 1.3567731,1.3567731 0 0 0 -0.0274,-0.0176 c -0.88841,-0.53305 -1.33984,-1.36613 -1.33984,-3.15625 0,-1.51642 0.37188,-2.49002 1.02539,-3.1836 0.27385,-0.28019 0.51788,-0.42615 0.76562,-0.58593 z m -155.80273,10.10547 -0.0957,0.11718 -0.0684,0.0293 c 0.0432,-0.0623 0.12259,-0.0823 0.16406,-0.14648 z" /><text
       xml:space="preserve"
       style="font-style:normal;font-variant:normal;font-weight:normal;font-stretch:normal;font-size:40px;line-height:125%;font-family:'Bubblegum Sans';-inkscape-font-specification:'Bubblegum Sans, Normal';text-align:center;letter-spacing:0px;word-spacing:0px;writing-mode:lr-tb;text-anchor:middle;fill:#ffffff;fill-opacity:1;stroke:none;stroke-width:1px;stroke-linecap:butt;stroke-linejoin:miter;stroke-opacity:1"
       x="190.90842"
       y="216.97369"
       id="text6717"
       sodipodi:linespacing="125%"><tspan
         sodipodi:role="line"
         id="tspan6719"
         x="190.90842"
         y="216.97369"
         style="font-style:normal;font-variant:normal;font-weight:normal;font-stretch:normal;font-size:40px;line-height:125%;font-family:'Bubblegum Sans';-inkscape-font-specification:'Bubblegum Sans, Normal';text-align:center;writing-mode:lr-tb;text-anchor:middle;fill:#ffffff;">Missing Screenshot</tspan></text>
</g></svg>